<svg width="208" height="137" viewBox="0 0 208 137" fill="none" xmlns="http://www.w3.org/2000/svg">
<path d="M0 8.54077C0 4.12247 3.5817 0.540771 8 0.540771H200C204.418 0.540771 208 4.12247 208 8.54077V38.5408H0V8.54077Z" fill="#7551DC"/>
<path d="M12.416 24.5408L16.544 13.3408H18.4L22.496 24.5408H20.704L19.744 21.8048H15.168L14.208 24.5408H12.416ZM15.648 20.4608H19.264L17.456 15.3568L15.648 20.4608ZM25.79 24.7328C24.83 24.7328 24.0727 24.4341 23.518 23.8368C22.974 23.2395 22.702 22.3488 22.702 21.1648V16.6048H24.398V20.9888C24.398 22.5248 25.0273 23.2928 26.286 23.2928C26.9153 23.2928 27.4327 23.0688 27.838 22.6208C28.2433 22.1728 28.446 21.5328 28.446 20.7008V16.6048H30.142V24.5408H28.638L28.51 23.1488C28.2647 23.6395 27.902 24.0288 27.422 24.3168C26.9527 24.5941 26.4087 24.7328 25.79 24.7328ZM34.5875 22.1088C34.1715 22.1088 33.7875 22.0608 33.4355 21.9648L32.7475 22.6368C32.8648 22.7115 33.0088 22.7755 33.1795 22.8288C33.3502 22.8821 33.5902 22.9301 33.8995 22.9728C34.2088 23.0155 34.6302 23.0581 35.1635 23.1008C36.2195 23.1968 36.9822 23.4528 37.4515 23.8688C37.9208 24.2741 38.1555 24.8181 38.1555 25.5008C38.1555 25.9701 38.0275 26.4128 37.7715 26.8288C37.5262 27.2555 37.1368 27.5968 36.6035 27.8528C36.0808 28.1195 35.4088 28.2528 34.5875 28.2528C33.4782 28.2528 32.5768 28.0395 31.8835 27.6128C31.2008 27.1968 30.8595 26.5621 30.8595 25.7088C30.8595 25.3781 30.9448 25.0475 31.1155 24.7168C31.2968 24.3968 31.5795 24.0928 31.9635 23.8048C31.7395 23.7088 31.5422 23.6075 31.3715 23.5008C31.2115 23.3835 31.0675 23.2661 30.9395 23.1488V22.7648L32.3155 21.3568C31.6968 20.8235 31.3875 20.1248 31.3875 19.2608C31.3875 18.7381 31.5102 18.2635 31.7555 17.8368C32.0115 17.3995 32.3795 17.0528 32.8595 16.7968C33.3395 16.5408 33.9155 16.4128 34.5875 16.4128C35.0355 16.4128 35.4515 16.4768 35.8355 16.6048H38.7955V17.7248L37.3875 17.8048C37.6435 18.2421 37.7715 18.7275 37.7715 19.2608C37.7715 19.7941 37.6435 20.2741 37.3875 20.7008C37.1422 21.1275 36.7795 21.4688 36.2995 21.7248C35.8302 21.9808 35.2595 22.1088 34.5875 22.1088ZM34.5875 20.7808C35.0782 20.7808 35.4728 20.6528 35.7715 20.3968C36.0808 20.1301 36.2355 19.7568 36.2355 19.2768C36.2355 18.7861 36.0808 18.4128 35.7715 18.1568C35.4728 17.9008 35.0782 17.7728 34.5875 17.7728C34.0862 17.7728 33.6808 17.9008 33.3715 18.1568C33.0728 18.4128 32.9235 18.7861 32.9235 19.2768C32.9235 19.7568 33.0728 20.1301 33.3715 20.3968C33.6808 20.6528 34.0862 20.7808 34.5875 20.7808ZM32.4595 25.5488C32.4595 26.0075 32.6622 26.3488 33.0675 26.5728C33.4728 26.8075 33.9795 26.9248 34.5875 26.9248C35.1742 26.9248 35.6488 26.7968 36.0115 26.5408C36.3742 26.2955 36.5555 25.9648 36.5555 25.5488C36.5555 25.2395 36.4328 24.9728 36.1875 24.7488C35.9422 24.5355 35.4782 24.4021 34.7955 24.3488C34.2835 24.3168 33.8302 24.2688 33.4355 24.2048C33.0622 24.4075 32.8062 24.6261 32.6675 24.8608C32.5288 25.0955 32.4595 25.3248 32.4595 25.5488ZM42.2763 24.7328C41.3163 24.7328 40.5589 24.4341 40.0043 23.8368C39.4603 23.2395 39.1883 22.3488 39.1883 21.1648V16.6048H40.8843V20.9888C40.8843 22.5248 41.5136 23.2928 42.7723 23.2928C43.4016 23.2928 43.9189 23.0688 44.3243 22.6208C44.7296 22.1728 44.9323 21.5328 44.9323 20.7008V16.6048H46.6283V24.5408H45.1243L44.9963 23.1488C44.7509 23.6395 44.3883 24.0288 43.9083 24.3168C43.4389 24.5941 42.8949 24.7328 42.2763 24.7328ZM50.9938 24.7328C49.9911 24.7328 49.1644 24.4875 48.5137 23.9968C47.8631 23.5061 47.4897 22.8555 47.3937 22.0448H49.1057C49.1911 22.4075 49.3937 22.7221 49.7137 22.9888C50.0337 23.2448 50.4551 23.3728 50.9777 23.3728C51.4897 23.3728 51.8631 23.2661 52.0978 23.0528C52.3324 22.8395 52.4497 22.5941 52.4497 22.3168C52.4497 21.9115 52.2844 21.6395 51.9538 21.5008C51.6338 21.3515 51.1858 21.2181 50.6098 21.1008C50.1618 21.0048 49.7138 20.8768 49.2657 20.7168C48.8284 20.5568 48.4604 20.3328 48.1617 20.0448C47.8737 19.7461 47.7297 19.3461 47.7297 18.8448C47.7297 18.1515 47.9964 17.5755 48.5297 17.1168C49.0631 16.6475 49.8098 16.4128 50.7698 16.4128C51.6551 16.4128 52.3698 16.6261 52.9138 17.0528C53.4684 17.4795 53.7937 18.0821 53.8898 18.8608H52.2578C52.2044 18.5195 52.0444 18.2528 51.7778 18.0608C51.5218 17.8688 51.1751 17.7728 50.7378 17.7728C50.3111 17.7728 49.9804 17.8635 49.7457 18.0448C49.5111 18.2155 49.3937 18.4395 49.3937 18.7168C49.3937 18.9941 49.5537 19.2128 49.8737 19.3728C50.2044 19.5328 50.6364 19.6768 51.1698 19.8048C51.7031 19.9221 52.1938 20.0608 52.6418 20.2208C53.1004 20.3701 53.4684 20.5941 53.7457 20.8928C54.0231 21.1915 54.1618 21.6288 54.1618 22.2048C54.1724 22.9301 53.8898 23.5328 53.3138 24.0128C52.7484 24.4928 51.9751 24.7328 50.9938 24.7328ZM58.0844 24.5408C57.3057 24.5408 56.687 24.3541 56.2284 23.9808C55.7697 23.5968 55.5404 22.9195 55.5404 21.9488V18.0288H54.1804V16.6048H55.5404L55.7484 14.5888H57.2364V16.6048H59.4764V18.0288H57.2364V21.9488C57.2364 22.3861 57.327 22.6901 57.5084 22.8608C57.7004 23.0208 58.0257 23.1008 58.4844 23.1008H59.3964V24.5408H58.0844ZM63.1764 24.5408V23.3248C63.9017 22.7488 64.595 22.1675 65.256 21.5808C65.918 20.9941 66.504 20.4181 67.016 19.8528C67.539 19.2768 67.95 18.7168 68.248 18.1728C68.547 17.6181 68.696 17.0848 68.696 16.5728C68.696 16.2315 68.638 15.9115 68.52 15.6128C68.403 15.3035 68.211 15.0581 67.944 14.8768C67.678 14.6848 67.32 14.5888 66.872 14.5888C66.2 14.5888 65.694 14.8021 65.352 15.2288C65.022 15.6555 64.8617 16.1675 64.8724 16.7648H63.2244C63.235 15.9755 63.4004 15.3141 63.7204 14.7808C64.051 14.2475 64.4884 13.8421 65.032 13.5648C65.587 13.2875 66.211 13.1488 66.904 13.1488C67.96 13.1488 68.803 13.4475 69.432 14.0448C70.072 14.6315 70.392 15.4528 70.392 16.5088C70.392 17.1381 70.238 17.7621 69.928 18.3808C69.63 18.9995 69.235 19.5968 68.744 20.1728C68.264 20.7381 67.747 21.2715 67.192 21.7728C66.638 22.2741 66.11 22.7275 65.608 23.1328H70.728V24.5408H63.1764ZM75.952 24.7328C74.938 24.7328 74.064 24.4928 73.328 24.0128C72.602 23.5221 72.042 22.8448 71.648 21.9808C71.264 21.1061 71.072 20.0928 71.072 18.9408C71.072 17.7888 71.264 16.7808 71.648 15.9168C72.042 15.0421 72.602 14.3648 73.328 13.8848C74.064 13.3941 74.938 13.1488 75.952 13.1488C76.965 13.1488 77.834 13.3941 78.56 13.8848C79.285 14.3648 79.84 15.0421 80.224 15.9168C80.618 16.7808 80.816 17.7888 80.816 18.9408C80.816 20.0928 80.618 21.1061 80.224 21.9808C79.84 22.8448 79.285 23.5221 78.56 24.0128C77.834 24.4928 76.965 24.7328 75.952 24.7328ZM75.952 23.2128C76.56 23.2128 77.098 23.0421 77.568 22.7008C78.048 22.3595 78.421 21.8688 78.688 21.2288C78.954 20.5888 79.088 19.8261 79.088 18.9408C79.088 18.0555 78.954 17.2928 78.688 16.6528C78.421 16.0128 78.048 15.5221 77.568 15.1808C77.098 14.8395 76.56 14.6688 75.952 14.6688C75.333 14.6688 74.789 14.8395 74.32 15.1808C73.85 15.5221 73.482 16.0128 73.216 16.6528C72.949 17.2928 72.816 18.0555 72.816 18.9408C72.816 19.8261 72.949 20.5888 73.216 21.2288C73.482 21.8688 73.85 22.3595 74.32 22.7008C74.789 23.0421 75.333 23.2128 75.952 23.2128ZM81.397 24.5408V23.3248C82.122 22.7488 82.816 22.1675 83.477 21.5808C84.138 20.9941 84.725 20.4181 85.237 19.8528C85.76 19.2768 86.17 18.7168 86.469 18.1728C86.768 17.6181 86.917 17.0848 86.917 16.5728C86.917 16.2315 86.858 15.9115 86.741 15.6128C86.624 15.3035 86.432 15.0581 86.165 14.8768C85.898 14.6848 85.541 14.5888 85.093 14.5888C84.421 14.5888 83.914 14.8021 83.573 15.2288C83.242 15.6555 83.082 16.1675 83.093 16.7648H81.445C81.456 15.9755 81.621 15.3141 81.941 14.7808C82.272 14.2475 82.709 13.8421 83.253 13.5648C83.808 13.2875 84.432 13.1488 85.125 13.1488C86.181 13.1488 87.024 13.4475 87.653 14.0448C88.293 14.6315 88.613 15.4528 88.613 16.5088C88.613 17.1381 88.458 17.7621 88.149 18.3808C87.85 18.9995 87.456 19.5968 86.965 20.1728C86.485 20.7381 85.968 21.2715 85.413 21.7728C84.858 22.2741 84.33 22.7275 83.829 23.1328H88.949V24.5408H81.397ZM94.718 24.5408V22.3008H89.102V20.9568L94.446 13.3408H96.398V20.8288H97.966V22.3008H96.398V24.5408H94.718ZM90.942 20.8288H94.814V15.2128L90.942 20.8288Z" fill="white"/>
<path d="M147.996 24.0548L145.35 14.2408H146.946L148.892 22.3608L151.132 14.2408H152.77L154.94 22.3608L156.886 14.2408H158.482L155.794 24.0408H154.058L151.916 16.3548L149.704 24.0408L147.996 24.0548ZM161.471 24.2088C160.79 24.2088 160.183 24.0595 159.651 23.7608C159.128 23.4528 158.718 23.0281 158.419 22.4868C158.12 21.9455 157.971 21.3155 157.971 20.5968C157.971 19.8688 158.116 19.2295 158.405 18.6788C158.704 18.1281 159.114 17.6988 159.637 17.3908C160.169 17.0828 160.785 16.9288 161.485 16.9288C162.166 16.9288 162.759 17.0828 163.263 17.3908C163.767 17.6895 164.159 18.0908 164.439 18.5948C164.719 19.0988 164.859 19.6541 164.859 20.2608C164.859 20.3541 164.854 20.4568 164.845 20.5688C164.845 20.6715 164.84 20.7881 164.831 20.9188H159.427C159.474 21.5908 159.693 22.1041 160.085 22.4588C160.486 22.8041 160.948 22.9768 161.471 22.9768C161.891 22.9768 162.241 22.8835 162.521 22.6968C162.81 22.5008 163.025 22.2395 163.165 21.9128H164.649C164.462 22.5661 164.089 23.1121 163.529 23.5508C162.978 23.9895 162.292 24.2088 161.471 24.2088ZM161.471 18.1468C160.976 18.1468 160.538 18.2961 160.155 18.5948C159.772 18.8841 159.539 19.3228 159.455 19.9108H163.375C163.347 19.3695 163.156 18.9401 162.801 18.6228C162.446 18.3055 162.003 18.1468 161.471 18.1468ZM168.807 24.2088C168.125 24.2088 167.519 24.0595 166.987 23.7608C166.464 23.4528 166.053 23.0281 165.755 22.4868C165.456 21.9455 165.307 21.3155 165.307 20.5968C165.307 19.8688 165.451 19.2295 165.741 18.6788C166.039 18.1281 166.45 17.6988 166.973 17.3908C167.505 17.0828 168.121 16.9288 168.821 16.9288C169.502 16.9288 170.095 17.0828 170.599 17.3908C171.103 17.6895 171.495 18.0908 171.775 18.5948C172.055 19.0988 172.195 19.6541 172.195 20.2608C172.195 20.3541 172.19 20.4568 172.181 20.5688C172.181 20.6715 172.176 20.7881 172.167 20.9188H166.763C166.809 21.5908 167.029 22.1041 167.421 22.4588C167.822 22.8041 168.284 22.9768 168.807 22.9768C169.227 22.9768 169.577 22.8835 169.857 22.6968C170.146 22.5008 170.361 22.2395 170.501 21.9128H171.985C171.798 22.5661 171.425 23.1121 170.865 23.5508C170.314 23.9895 169.628 24.2088 168.807 24.2088ZM168.807 18.1468C168.312 18.1468 167.873 18.2961 167.491 18.5948C167.108 18.8841 166.875 19.3228 166.791 19.9108H170.711C170.683 19.3695 170.491 18.9401 170.137 18.6228C169.782 18.3055 169.339 18.1468 168.807 18.1468ZM172.895 24.0408V13.9608H174.379V19.9668L177.039 17.0968H178.817L175.863 20.2468L179.251 24.0408H177.375L174.379 20.4848V24.0408H172.895ZM180.624 24.0408V15.9208L179.042 16.2848V15.1928L181.212 14.2408H182.164V24.0408H180.624Z" fill="white"/>
<path d="M208 38.5408H0V157.541H208V38.5408Z" fill="white"/>
<path d="M28 56.7908C26.0716 56.7908 24.1866 57.3626 22.5832 58.434C20.9798 59.5053 19.7301 61.0281 18.9922 62.8096C18.2542 64.5912 18.0611 66.5516 18.4373 68.4429C18.8136 70.3342 19.7422 72.0715 21.1057 73.4351C22.4693 74.7987 24.2066 75.7273 26.0979 76.1035C27.9892 76.4797 29.9496 76.2866 31.7312 75.5486C33.5127 74.8107 35.0355 73.561 36.1068 71.9576C37.1782 70.3542 37.75 68.4692 37.75 66.5408C37.7473 63.9558 36.7192 61.4774 34.8913 59.6495C33.0634 57.8216 30.585 56.7935 28 56.7908ZM32.2806 64.8214L27.0306 70.0714C26.961 70.1412 26.8783 70.1965 26.7872 70.2342C26.6962 70.272 26.5986 70.2914 26.5 70.2914C26.4014 70.2914 26.3038 70.272 26.2128 70.2342C26.1218 70.1965 26.039 70.1412 25.9694 70.0714L23.7194 67.8214C23.5786 67.6807 23.4996 67.4898 23.4996 67.2908C23.4996 67.0918 23.5786 66.9009 23.7194 66.7602C23.8601 66.6194 24.051 66.5404 24.25 66.5404C24.449 66.5404 24.6399 66.6194 24.7806 66.7602L26.5 68.4805L31.2194 63.7602C31.2891 63.6905 31.3718 63.6352 31.4628 63.5975C31.5539 63.5598 31.6515 63.5404 31.75 63.5404C31.8486 63.5404 31.9461 63.5598 32.0372 63.5975C32.1282 63.6352 32.2109 63.6905 32.2806 63.7602C32.3503 63.8299 32.4056 63.9126 32.4433 64.0036C32.481 64.0947 32.5004 64.1923 32.5004 64.2908C32.5004 64.3893 32.481 64.4869 32.4433 64.578C32.4056 64.669 32.3503 64.7517 32.2806 64.8214Z" fill="#7551DC"/>
<path d="M78.6672 56.7908C76.7392 56.7908 74.8542 57.3626 73.2502 58.434C71.6472 59.5053 70.3972 61.0281 69.6592 62.8096C68.9212 64.5912 68.7282 66.5516 69.1042 68.4429C69.4812 70.3342 70.4092 72.0715 71.7732 73.4351C73.1362 74.7987 74.8742 75.7273 76.7652 76.1035C78.6562 76.4797 80.6172 76.2866 82.3982 75.5486C84.1802 74.8107 85.7022 73.561 86.7742 71.9576C87.8452 70.3542 88.4172 68.4692 88.4172 66.5408C88.4142 63.9558 87.3862 61.4774 85.5582 59.6495C83.7302 57.8216 81.2522 56.7935 78.6672 56.7908ZM82.9482 64.8214L77.6982 70.0714C77.6282 70.1412 77.5452 70.1965 77.4542 70.2342C77.3632 70.272 77.2662 70.2914 77.1672 70.2914C77.0682 70.2914 76.9712 70.272 76.8802 70.2342C76.7892 70.1965 76.7062 70.1412 76.6362 70.0714L74.3862 67.8214C74.2462 67.6807 74.1672 67.4898 74.1672 67.2908C74.1672 67.0918 74.2462 66.9009 74.3862 66.7602C74.5272 66.6194 74.7182 66.5404 74.9172 66.5404C75.1162 66.5404 75.3072 66.6194 75.4482 66.7602L77.1672 68.4805L81.8862 63.7602C81.9562 63.6905 82.0392 63.6352 82.1302 63.5975C82.2212 63.5598 82.3182 63.5404 82.4172 63.5404C82.5162 63.5404 82.6132 63.5598 82.7042 63.5975C82.7952 63.6352 82.8782 63.6905 82.9482 63.7602C83.0172 63.8299 83.0732 63.9126 83.1102 64.0036C83.1482 64.0947 83.1672 64.1923 83.1672 64.2908C83.1672 64.3893 83.1482 64.4869 83.1102 64.578C83.0732 64.669 83.0172 64.7517 82.9482 64.8214Z" fill="#7551DC"/>
<path d="M129.333 56.7908C127.405 56.7908 125.52 57.3626 123.916 58.434C122.313 59.5053 121.063 61.0281 120.325 62.8096C119.587 64.5912 119.394 66.5516 119.77 68.4429C120.147 70.3342 121.075 72.0715 122.439 73.4351C123.802 74.7987 125.54 75.7273 127.431 76.1035C129.322 76.4797 131.283 76.2866 133.064 75.5486C134.846 74.8107 136.368 73.561 137.44 71.9576C138.511 70.3542 139.083 68.4692 139.083 66.5408C139.08 63.9558 138.052 61.4774 136.224 59.6495C134.396 57.8216 131.918 56.7935 129.333 56.7908ZM133.614 64.8214L128.364 70.0714C128.294 70.1412 128.211 70.1965 128.12 70.2342C128.029 70.272 127.932 70.2914 127.833 70.2914C127.734 70.2914 127.637 70.272 127.546 70.2342C127.455 70.1965 127.372 70.1412 127.302 70.0714L125.052 67.8214C124.912 67.6807 124.833 67.4898 124.833 67.2908C124.833 67.0918 124.912 66.9009 125.052 66.7602C125.193 66.6194 125.384 66.5404 125.583 66.5404C125.782 66.5404 125.973 66.6194 126.114 66.7602L127.833 68.4805L132.552 63.7602C132.622 63.6905 132.705 63.6352 132.796 63.5975C132.887 63.5598 132.984 63.5404 133.083 63.5404C133.182 63.5404 133.279 63.5598 133.37 63.5975C133.461 63.6352 133.544 63.6905 133.614 63.7602C133.683 63.8299 133.739 63.9126 133.776 64.0036C133.814 64.0947 133.833 64.1923 133.833 64.2908C133.833 64.3893 133.814 64.4869 133.776 64.578C133.739 64.669 133.683 64.7517 133.614 64.8214Z" fill="#7551DC"/>
<path d="M180 56.7908C178.072 56.7908 176.187 57.3626 174.583 58.434C172.98 59.5053 171.73 61.0281 170.992 62.8096C170.254 64.5912 170.061 66.5516 170.437 68.4429C170.814 70.3342 171.742 72.0715 173.106 73.4351C174.469 74.7987 176.207 75.7273 178.098 76.1035C179.989 76.4797 181.95 76.2866 183.731 75.5486C185.513 74.8107 187.035 73.561 188.107 71.9576C189.178 70.3542 189.75 68.4692 189.75 66.5408C189.747 63.9558 188.719 61.4774 186.891 59.6495C185.063 57.8216 182.585 56.7935 180 56.7908ZM184.281 64.8214L179.031 70.0714C178.961 70.1412 178.878 70.1965 178.787 70.2342C178.696 70.272 178.599 70.2914 178.5 70.2914C178.401 70.2914 178.304 70.272 178.213 70.2342C178.122 70.1965 178.039 70.1412 177.969 70.0714L175.719 67.8214C175.579 67.6807 175.5 67.4898 175.5 67.2908C175.5 67.0918 175.579 66.9009 175.719 66.7602C175.86 66.6194 176.051 66.5404 176.25 66.5404C176.449 66.5404 176.64 66.6194 176.781 66.7602L178.5 68.4805L183.219 63.7602C183.289 63.6905 183.372 63.6352 183.463 63.5975C183.554 63.5598 183.651 63.5404 183.75 63.5404C183.849 63.5404 183.946 63.5598 184.037 63.5975C184.128 63.6352 184.211 63.6905 184.281 63.7602C184.35 63.8299 184.406 63.9126 184.443 64.0036C184.481 64.0947 184.5 64.1923 184.5 64.2908C184.5 64.3893 184.481 64.4869 184.443 64.578C184.406 64.669 184.35 64.7517 184.281 64.8214Z" fill="#7551DC"/>
<path d="M35 94.5408H20C17.7909 94.5408 16 96.3316 16 98.5408V113.541C16 115.75 17.7909 117.541 20 117.541H35C37.2091 117.541 39 115.75 39 113.541V98.5408C39 96.3316 37.2091 94.5408 35 94.5408Z" fill="#FCEBD1"/>
<path d="M86 94.5408H71C68.7909 94.5408 67 96.3316 67 98.5408V113.541C67 115.75 68.7909 117.541 71 117.541H86C88.2091 117.541 90 115.75 90 113.541V98.5408C90 96.3316 88.2091 94.5408 86 94.5408Z" fill="#FCEBD1"/>
<path d="M137 94.5408H122C119.791 94.5408 118 96.3316 118 98.5408V113.541C118 115.75 119.791 117.541 122 117.541H137C139.209 117.541 141 115.75 141 113.541V98.5408C141 96.3316 139.209 94.5408 137 94.5408Z" fill="#FCEBD1"/>
<path d="M188 94.5408H173C170.791 94.5408 169 96.3316 169 98.5408V113.541C169 115.75 170.791 117.541 173 117.541H188C190.209 117.541 192 115.75 192 113.541V98.5408C192 96.3316 190.209 94.5408 188 94.5408Z" fill="#FCEBD1"/>
<path d="M35 133.541H20C17.7909 133.541 16 135.332 16 137.541V152.541C16 154.75 17.7909 156.541 20 156.541H35C37.2091 156.541 39 154.75 39 152.541V137.541C39 135.332 37.2091 133.541 35 133.541Z" fill="#FCEBD1"/>
<path d="M86 133.541H71C68.7909 133.541 67 135.332 67 137.541V152.541C67 154.75 68.7909 156.541 71 156.541H86C88.2091 156.541 90 154.75 90 152.541V137.541C90 135.332 88.2091 133.541 86 133.541Z" fill="#FCEBD1"/>
<path d="M137 133.541H122C119.791 133.541 118 135.332 118 137.541V152.541C118 154.75 119.791 156.541 122 156.541H137C139.209 156.541 141 154.75 141 152.541V137.541C141 135.332 139.209 133.541 137 133.541Z" fill="#FCEBD1"/>
<path d="M188 133.541H173C170.791 133.541 169 135.332 169 137.541V152.541C169 154.75 170.791 156.541 173 156.541H188C190.209 156.541 192 154.75 192 152.541V137.541C192 135.332 190.209 133.541 188 133.541Z" fill="#FCEBD1"/>
</svg>
