<svg width="244" height="238" viewBox="0 0 244 238" fill="none" xmlns="http://www.w3.org/2000/svg">
<rect x="0.658203" y="0.700928" width="195.918" height="188.939" rx="14.8767" fill="white"/>
<path d="M28.3495 41.3565V31.5565H34.3135V32.5225H29.5255V35.9665H33.5995V36.9185H29.5255V41.3565H28.3495ZM38.2012 41.5245C37.5479 41.5245 36.9599 41.3752 36.4372 41.0765C35.9145 40.7778 35.4992 40.3578 35.1912 39.8165C34.8925 39.2658 34.7432 38.6218 34.7432 37.8845C34.7432 37.1472 34.8972 36.5078 35.2052 35.9665C35.5132 35.4158 35.9285 34.9912 36.4512 34.6925C36.9832 34.3938 37.5759 34.2445 38.2292 34.2445C38.8825 34.2445 39.4705 34.3938 39.9932 34.6925C40.5159 34.9912 40.9265 35.4158 41.2252 35.9665C41.5332 36.5078 41.6872 37.1472 41.6872 37.8845C41.6872 38.6218 41.5332 39.2658 41.2252 39.8165C40.9172 40.3578 40.4972 40.7778 39.9652 41.0765C39.4425 41.3752 38.8545 41.5245 38.2012 41.5245ZM38.2012 40.5165C38.6025 40.5165 38.9759 40.4185 39.3212 40.2225C39.6665 40.0265 39.9465 39.7325 40.1612 39.3405C40.3759 38.9485 40.4832 38.4632 40.4832 37.8845C40.4832 37.3058 40.3759 36.8205 40.1612 36.4285C39.9559 36.0365 39.6805 35.7425 39.3352 35.5465C38.9899 35.3505 38.6212 35.2525 38.2292 35.2525C37.8279 35.2525 37.4545 35.3505 37.1092 35.5465C36.7639 35.7425 36.4839 36.0365 36.2692 36.4285C36.0545 36.8205 35.9472 37.3058 35.9472 37.8845C35.9472 38.4632 36.0545 38.9485 36.2692 39.3405C36.4839 39.7325 36.7592 40.0265 37.0952 40.2225C37.4405 40.4185 37.8092 40.5165 38.2012 40.5165ZM42.9024 41.3565V31.2765H44.0784V41.3565H42.9024ZM45.5859 41.3565V31.2765H46.7619V41.3565H45.5859ZM51.4334 41.5245C50.7801 41.5245 50.1921 41.3752 49.6694 41.0765C49.1467 40.7778 48.7314 40.3578 48.4234 39.8165C48.1247 39.2658 47.9754 38.6218 47.9754 37.8845C47.9754 37.1472 48.1294 36.5078 48.4374 35.9665C48.7454 35.4158 49.1607 34.9912 49.6834 34.6925C50.2154 34.3938 50.8081 34.2445 51.4614 34.2445C52.1147 34.2445 52.7027 34.3938 53.2254 34.6925C53.7481 34.9912 54.1587 35.4158 54.4574 35.9665C54.7654 36.5078 54.9194 37.1472 54.9194 37.8845C54.9194 38.6218 54.7654 39.2658 54.4574 39.8165C54.1494 40.3578 53.7294 40.7778 53.1974 41.0765C52.6747 41.3752 52.0867 41.5245 51.4334 41.5245ZM51.4334 40.5165C51.8347 40.5165 52.2081 40.4185 52.5534 40.2225C52.8987 40.0265 53.1787 39.7325 53.3934 39.3405C53.6081 38.9485 53.7154 38.4632 53.7154 37.8845C53.7154 37.3058 53.6081 36.8205 53.3934 36.4285C53.1881 36.0365 52.9127 35.7425 52.5674 35.5465C52.2221 35.3505 51.8534 35.2525 51.4614 35.2525C51.0601 35.2525 50.6867 35.3505 50.3414 35.5465C49.9961 35.7425 49.7161 36.0365 49.5014 36.4285C49.2867 36.8205 49.1794 37.3058 49.1794 37.8845C49.1794 38.4632 49.2867 38.9485 49.5014 39.3405C49.7161 39.7325 49.9914 40.0265 50.3274 40.2225C50.6727 40.4185 51.0414 40.5165 51.4334 40.5165ZM57.2748 41.3565L55.2448 34.4125H56.4208L57.8908 39.8585L59.5148 34.4125H60.8448L62.4828 39.8585L63.9388 34.4125H65.1288L63.0988 41.3565H61.8948L60.1868 35.6305L58.4788 41.3565H57.2748ZM68.8717 41.5245C68.209 41.5245 67.621 41.3752 67.1077 41.0765C66.5944 40.7685 66.1884 40.3438 65.8897 39.8025C65.6004 39.2612 65.4557 38.6218 65.4557 37.8845C65.4557 37.1565 65.6004 36.5218 65.8897 35.9805C66.179 35.4298 66.5804 35.0052 67.0937 34.7065C67.6164 34.3985 68.2184 34.2445 68.8997 34.2445C69.5717 34.2445 70.1504 34.3985 70.6357 34.7065C71.1304 35.0052 71.5084 35.4018 71.7697 35.8965C72.031 36.3912 72.1617 36.9232 72.1617 37.4925C72.1617 37.5952 72.157 37.6978 72.1477 37.8005C72.1477 37.9032 72.1477 38.0198 72.1477 38.1505H66.6177C66.6457 38.6825 66.767 39.1258 66.9817 39.4805C67.2057 39.8258 67.481 40.0872 67.8077 40.2645C68.1437 40.4418 68.4984 40.5305 68.8717 40.5305C69.357 40.5305 69.763 40.4185 70.0897 40.1945C70.4164 39.9705 70.6544 39.6672 70.8037 39.2845H71.9657C71.779 39.9285 71.4197 40.4652 70.8877 40.8945C70.365 41.3145 69.693 41.5245 68.8717 41.5245ZM68.8717 35.2385C68.3117 35.2385 67.8124 35.4112 67.3737 35.7565C66.9444 36.0925 66.697 36.5872 66.6317 37.2405H70.9997C70.9717 36.6152 70.757 36.1252 70.3557 35.7705C69.9544 35.4158 69.4597 35.2385 68.8717 35.2385ZM73.3004 41.3565V34.4125H74.3644L74.4624 35.7425C74.6771 35.2852 75.0037 34.9212 75.4424 34.6505C75.8811 34.3798 76.4224 34.2445 77.0664 34.2445V35.4765H76.7444C76.3337 35.4765 75.9557 35.5512 75.6104 35.7005C75.2651 35.8405 74.9897 36.0832 74.7844 36.4285C74.5791 36.7738 74.4764 37.2498 74.4764 37.8565V41.3565H73.3004ZM85.5354 41.5245C84.6208 41.5245 83.8181 41.3145 83.1274 40.8945C82.4368 40.4652 81.9001 39.8725 81.5174 39.1165C81.1348 38.3512 80.9434 37.4692 80.9434 36.4705C80.9434 35.4718 81.1348 34.5898 81.5174 33.8245C81.9094 33.0592 82.4601 32.4618 83.1694 32.0325C83.8881 31.6032 84.7328 31.3885 85.7034 31.3885C86.8048 31.3885 87.7194 31.6545 88.4474 32.1865C89.1848 32.7185 89.6608 33.4512 89.8754 34.3845H88.5174C88.3868 33.7965 88.0741 33.3298 87.5794 32.9845C87.0941 32.6392 86.4688 32.4665 85.7034 32.4665C84.9848 32.4665 84.3594 32.6298 83.8274 32.9565C83.2954 33.2738 82.8801 33.7312 82.5814 34.3285C82.2921 34.9258 82.1474 35.6398 82.1474 36.4705C82.1474 37.3012 82.2921 38.0152 82.5814 38.6125C82.8708 39.2098 83.2721 39.6718 83.7854 39.9985C84.2988 40.3158 84.8961 40.4745 85.5774 40.4745C86.6228 40.4745 87.4114 40.1712 87.9434 39.5645C88.4754 38.9485 88.7788 38.1085 88.8534 37.0445H86.0254V36.1205H90.0574V41.3565H88.9794L88.8814 39.7465C88.5268 40.3158 88.0928 40.7545 87.5794 41.0625C87.0661 41.3705 86.3848 41.5245 85.5354 41.5245ZM91.4271 41.3565V34.4125H92.4911L92.5891 35.7425C92.8038 35.2852 93.1305 34.9212 93.5691 34.6505C94.0078 34.3798 94.5491 34.2445 95.1931 34.2445V35.4765H94.8711C94.4605 35.4765 94.0825 35.5512 93.7371 35.7005C93.3918 35.8405 93.1165 36.0832 92.9111 36.4285C92.7058 36.7738 92.6031 37.2498 92.6031 37.8565V41.3565H91.4271ZM98.9973 41.5245C98.344 41.5245 97.756 41.3752 97.2333 41.0765C96.7106 40.7778 96.2953 40.3578 95.9873 39.8165C95.6886 39.2658 95.5393 38.6218 95.5393 37.8845C95.5393 37.1472 95.6933 36.5078 96.0013 35.9665C96.3093 35.4158 96.7246 34.9912 97.2473 34.6925C97.7793 34.3938 98.372 34.2445 99.0253 34.2445C99.6786 34.2445 100.267 34.3938 100.789 34.6925C101.312 34.9912 101.723 35.4158 102.021 35.9665C102.329 36.5078 102.483 37.1472 102.483 37.8845C102.483 38.6218 102.329 39.2658 102.021 39.8165C101.713 40.3578 101.293 40.7778 100.761 41.0765C100.239 41.3752 99.6506 41.5245 98.9973 41.5245ZM98.9973 40.5165C99.3986 40.5165 99.772 40.4185 100.117 40.2225C100.463 40.0265 100.743 39.7325 100.957 39.3405C101.172 38.9485 101.279 38.4632 101.279 37.8845C101.279 37.3058 101.172 36.8205 100.957 36.4285C100.752 36.0365 100.477 35.7425 100.131 35.5465C99.786 35.3505 99.4173 35.2525 99.0253 35.2525C98.624 35.2525 98.2506 35.3505 97.9053 35.5465C97.56 35.7425 97.28 36.0365 97.0653 36.4285C96.8506 36.8205 96.7433 37.3058 96.7433 37.8845C96.7433 38.4632 96.8506 38.9485 97.0653 39.3405C97.28 39.7325 97.5553 40.0265 97.8913 40.2225C98.2366 40.4185 98.6053 40.5165 98.9973 40.5165ZM104.839 41.3565L102.809 34.4125H103.985L105.455 39.8585L107.079 34.4125H108.409L110.047 39.8585L111.503 34.4125H112.693L110.663 41.3565H109.459L107.751 35.6305L106.043 41.3565H104.839ZM116.317 41.3565C115.683 41.3565 115.183 41.2025 114.819 40.8945C114.455 40.5865 114.273 40.0312 114.273 39.2285V35.4065H113.069V34.4125H114.273L114.427 32.7465H115.449V34.4125H117.493V35.4065H115.449V39.2285C115.449 39.6672 115.538 39.9658 115.715 40.1245C115.893 40.2738 116.205 40.3485 116.653 40.3485H117.381V41.3565H116.317ZM118.567 41.3565V31.2765H119.743V35.6025C119.977 35.1732 120.308 34.8418 120.737 34.6085C121.167 34.3658 121.633 34.2445 122.137 34.2445C122.94 34.2445 123.584 34.4965 124.069 35.0005C124.555 35.4952 124.797 36.2605 124.797 37.2965V41.3565H123.635V37.4225C123.635 35.9758 123.052 35.2525 121.885 35.2525C121.279 35.2525 120.77 35.4718 120.359 35.9105C119.949 36.3398 119.743 36.9558 119.743 37.7585V41.3565H118.567Z" fill="#9E9E9E"/>
<path d="M28.8947 72.6876V70.5793C30.1523 69.5807 31.3544 68.5728 32.501 67.5556C33.6476 66.5384 34.6647 65.5398 35.5524 64.5596C36.4586 63.5609 37.1707 62.59 37.6885 61.6468C38.2063 60.6852 38.4652 59.7605 38.4652 58.8728C38.4652 58.281 38.3635 57.7262 38.1601 57.2083C37.9566 56.672 37.6238 56.2467 37.1614 55.9323C36.6991 55.5994 36.0795 55.4329 35.3028 55.4329C34.1377 55.4329 33.2592 55.8028 32.6674 56.5426C32.0941 57.2823 31.8167 58.17 31.8352 59.2057H28.9779C28.9964 57.8371 29.2831 56.6905 29.8379 55.7658C30.4112 54.8411 31.1694 54.1384 32.1126 53.6575C33.0743 53.1767 34.1562 52.9363 35.3583 52.9363C37.1891 52.9363 38.6502 53.4541 39.7413 54.4898C40.8509 55.5069 41.4057 56.9309 41.4057 58.7618C41.4057 59.8529 41.1376 60.9348 40.6012 62.0075C40.0834 63.0801 39.3992 64.1158 38.5484 65.1144C37.7162 66.0946 36.8193 67.0193 35.8576 67.8885C34.8959 68.7577 33.9805 69.5437 33.1113 70.2464H41.9883V72.6876H28.8947ZM51.0443 73.0205C49.2874 73.0205 47.7709 72.6044 46.4948 71.7722C45.2373 70.9215 44.2663 69.7471 43.5821 68.2491C42.9163 66.7326 42.5834 64.9757 42.5834 62.9784C42.5834 60.9811 42.9163 59.2334 43.5821 57.7354C44.2663 56.2189 45.2373 55.0446 46.4948 54.2124C47.7709 53.3616 49.2874 52.9363 51.0443 52.9363C52.8012 52.9363 54.3084 53.3616 55.566 54.2124C56.8236 55.0446 57.7853 56.2189 58.4511 57.7354C59.1353 59.2334 59.4775 60.9811 59.4775 62.9784C59.4775 64.9757 59.1353 66.7326 58.4511 68.2491C57.7853 69.7471 56.8236 70.9215 55.566 71.7722C54.3084 72.6044 52.8012 73.0205 51.0443 73.0205ZM51.0443 70.3851C52.0984 70.3851 53.0324 70.0892 53.8461 69.4974C54.6783 68.9056 55.3256 68.0549 55.7879 66.9453C56.2503 65.8357 56.4815 64.5134 56.4815 62.9784C56.4815 61.4434 56.2503 60.1211 55.7879 59.0115C55.3256 57.9019 54.6783 57.0511 53.8461 56.4593C53.0324 55.8675 52.0984 55.5716 51.0443 55.5716C49.9717 55.5716 49.0285 55.8675 48.2148 56.4593C47.401 57.0511 46.763 57.9019 46.3006 59.0115C45.8383 60.1211 45.6071 61.4434 45.6071 62.9784C45.6071 64.5134 45.8383 65.8357 46.3006 66.9453C46.763 68.0549 47.401 68.9056 48.2148 69.4974C49.0285 70.0892 49.9717 70.3851 51.0443 70.3851ZM58.5031 75.961L60.112 69.4142H63.0248L60.4726 75.961H58.5031ZM71.3775 73.0205C69.9535 73.0205 68.7514 72.7524 67.7713 72.216C66.7911 71.6797 65.9959 70.9677 65.3856 70.08C64.7938 69.1923 64.3684 68.1936 64.1095 67.084C63.8506 65.9744 63.7211 64.837 63.7211 63.6719C63.7211 61.5266 64.017 59.6495 64.6088 58.0406C65.2191 56.4316 66.0883 55.1833 67.2164 54.2956C68.3446 53.3894 69.7131 52.9363 71.3221 52.9363C72.5981 52.9363 73.6893 53.1859 74.5955 53.6853C75.5016 54.1846 76.2044 54.8504 76.7037 55.6826C77.2216 56.5148 77.536 57.421 77.6469 58.4012H74.9006C74.7342 57.4395 74.3365 56.6998 73.7078 56.1819C73.079 55.6641 72.2745 55.4052 71.2943 55.4052C69.9443 55.4052 68.8254 56.0432 67.9377 57.3193C67.0685 58.5769 66.6061 60.5187 66.5507 63.1448C66.9945 62.3311 67.6788 61.6376 68.6035 61.0643C69.5467 60.491 70.6285 60.2043 71.8491 60.2043C72.9403 60.2043 73.9574 60.4632 74.9006 60.9811C75.8623 61.4989 76.639 62.2294 77.2308 63.1726C77.8411 64.0973 78.1463 65.1976 78.1463 66.4737C78.1463 67.6018 77.8688 68.6652 77.314 69.6639C76.7592 70.6626 75.9732 71.4763 74.9561 72.1051C73.9574 72.7154 72.7646 73.0205 71.3775 73.0205ZM71.2111 70.4684C71.9878 70.4684 72.6813 70.3019 73.2916 69.969C73.9019 69.6362 74.3828 69.1831 74.7342 68.6097C75.0855 68.0179 75.2612 67.3522 75.2612 66.6124C75.2612 65.4288 74.8729 64.4856 74.0961 63.7829C73.3379 63.0801 72.367 62.7287 71.1834 62.7287C70.4066 62.7287 69.7039 62.9044 69.0751 63.2558C68.4648 63.6072 67.9839 64.0788 67.6326 64.6706C67.2812 65.2439 67.1055 65.8819 67.1055 66.5847C67.1055 67.3429 67.2812 68.0179 67.6326 68.6097C68.0024 69.1831 68.4925 69.6362 69.1028 69.969C69.7316 70.3019 70.4344 70.4684 71.2111 70.4684ZM88.9606 72.6876V68.8039H79.2236V66.4737L88.489 53.2692H91.8733V66.2518H94.5919V68.8039H91.8733V72.6876H88.9606ZM82.4138 66.2518H89.127V56.5148L82.4138 66.2518ZM95.3422 72.6876V70.5793C96.5998 69.5807 97.8019 68.5728 98.9485 67.5556C100.095 66.5384 101.112 65.5398 102 64.5596C102.906 63.5609 103.618 62.59 104.136 61.6468C104.654 60.6852 104.913 59.7605 104.913 58.8728C104.913 58.281 104.811 57.7262 104.608 57.2083C104.404 56.672 104.071 56.2467 103.609 55.9323C103.147 55.5994 102.527 55.4329 101.75 55.4329C100.585 55.4329 99.7067 55.8028 99.1149 56.5426C98.5416 57.2823 98.2642 58.17 98.2827 59.2057H95.4254C95.4439 57.8371 95.7306 56.6905 96.2854 55.7658C96.8587 54.8411 97.6169 54.1384 98.5601 53.6575C99.5218 53.1767 100.604 52.9363 101.806 52.9363C103.637 52.9363 105.098 53.4541 106.189 54.4898C107.298 55.5069 107.853 56.9309 107.853 58.7618C107.853 59.8529 107.585 60.9348 107.049 62.0075C106.531 63.0801 105.847 64.1158 104.996 65.1144C104.164 66.0946 103.267 67.0193 102.305 67.8885C101.343 68.7577 100.428 69.5437 99.5588 70.2464H108.436V72.6876H95.3422Z" fill="#121212"/>
<rect x="130.593" y="54.5221" width="39.3278" height="17.3311" rx="6.66389" fill="#DAFFE9"/>
<path d="M137.737 64.2204V63.5087H139.248V62.0933H139.984V63.5087H141.495V64.2204H139.984V65.6438H139.248V64.2204H137.737ZM144.692 66.1876V65.0681H141.886V64.3964L144.557 60.59H145.532V64.3324H146.316V65.0681H145.532V66.1876H144.692ZM142.805 64.3324H144.74V61.5256L142.805 64.3324ZM148.603 66.2836C148.235 66.2836 147.921 66.2116 147.66 66.0677C147.398 65.9237 147.193 65.7318 147.044 65.4919C146.9 65.252 146.812 64.9908 146.78 64.7082H147.572C147.62 64.9855 147.734 65.1987 147.916 65.348C148.097 65.4972 148.329 65.5719 148.611 65.5719C149 65.5719 149.32 65.3906 149.571 65.0281C149.827 64.6603 149.963 64.0978 149.979 63.3408C149.851 63.5754 149.651 63.7753 149.379 63.9406C149.112 64.1058 148.803 64.1885 148.451 64.1885C148.137 64.1885 147.841 64.1138 147.564 63.9645C147.286 63.8153 147.063 63.6074 146.892 63.3408C146.721 63.0689 146.636 62.7491 146.636 62.3812C146.636 62.056 146.716 61.7495 146.876 61.4616C147.036 61.1737 147.26 60.9418 147.548 60.7659C147.841 60.5846 148.187 60.494 148.587 60.494C148.998 60.494 149.344 60.5713 149.627 60.7259C149.909 60.8805 150.136 61.0857 150.307 61.3416C150.477 61.5975 150.6 61.8854 150.674 62.2053C150.754 62.5251 150.794 62.853 150.794 63.1889C150.794 63.8073 150.706 64.3484 150.53 64.8122C150.36 65.276 150.112 65.6385 149.787 65.8997C149.462 66.1556 149.067 66.2836 148.603 66.2836ZM148.643 63.4608C148.867 63.4608 149.067 63.4101 149.243 63.3088C149.419 63.2075 149.557 63.0743 149.659 62.909C149.765 62.7384 149.819 62.5518 149.819 62.3492C149.819 62.1306 149.765 61.9387 149.659 61.7735C149.557 61.6029 149.416 61.4696 149.235 61.3736C149.059 61.2777 148.859 61.2297 148.635 61.2297C148.411 61.2297 148.211 61.2777 148.035 61.3736C147.86 61.4696 147.718 61.6029 147.612 61.7735C147.51 61.9387 147.46 62.128 147.46 62.3412C147.46 62.6824 147.572 62.9543 147.796 63.1569C148.019 63.3595 148.302 63.4608 148.643 63.4608ZM153.616 66.2836C153.109 66.2836 152.672 66.1636 152.304 65.9237C151.942 65.6785 151.662 65.34 151.465 64.9082C151.273 64.471 151.177 63.9645 151.177 63.3888C151.177 62.813 151.273 62.3092 151.465 61.8774C151.662 61.4403 151.942 61.1017 152.304 60.8618C152.672 60.6166 153.109 60.494 153.616 60.494C154.122 60.494 154.557 60.6166 154.919 60.8618C155.282 61.1017 155.559 61.4403 155.751 61.8774C155.948 62.3092 156.047 62.813 156.047 63.3888C156.047 63.9645 155.948 64.471 155.751 64.9082C155.559 65.34 155.282 65.6785 154.919 65.9237C154.557 66.1636 154.122 66.2836 153.616 66.2836ZM153.616 65.5239C153.92 65.5239 154.189 65.4386 154.423 65.268C154.663 65.0974 154.85 64.8522 154.983 64.5323C155.117 64.2124 155.183 63.8313 155.183 63.3888C155.183 62.9463 155.117 62.5651 154.983 62.2453C154.85 61.9254 154.663 61.6802 154.423 61.5096C154.189 61.339 153.92 61.2537 153.616 61.2537C153.307 61.2537 153.035 61.339 152.8 61.5096C152.566 61.6802 152.382 61.9254 152.248 62.2453C152.115 62.5651 152.048 62.9463 152.048 63.3888C152.048 63.8313 152.115 64.2124 152.248 64.5323C152.382 64.8522 152.566 65.0974 152.8 65.268C153.035 65.4386 153.307 65.5239 153.616 65.5239ZM157.671 63.2608C157.421 63.2608 157.194 63.2049 156.992 63.0929C156.794 62.981 156.637 62.8237 156.52 62.6211C156.403 62.4132 156.344 62.1653 156.344 61.8774C156.344 61.5949 156.403 61.3523 156.52 61.1497C156.637 60.9418 156.797 60.7819 157 60.6699C157.202 60.558 157.429 60.502 157.679 60.502C157.925 60.502 158.146 60.558 158.343 60.6699C158.546 60.7819 158.706 60.9418 158.823 61.1497C158.94 61.3523 158.999 61.5949 158.999 61.8774C158.999 62.1653 158.94 62.4132 158.823 62.6211C158.706 62.8237 158.546 62.981 158.343 63.0929C158.146 63.2049 157.922 63.2608 157.671 63.2608ZM157.271 66.1876L160.478 60.59H161.31L158.111 66.1876H157.271ZM157.671 62.6531C157.842 62.6531 157.989 62.5891 158.111 62.4612C158.239 62.3279 158.303 62.1333 158.303 61.8774C158.303 61.6215 158.242 61.4296 158.119 61.3017C157.997 61.1684 157.847 61.1017 157.671 61.1017C157.501 61.1017 157.351 61.1684 157.224 61.3017C157.096 61.4296 157.032 61.6215 157.032 61.8774C157.032 62.1333 157.093 62.3279 157.216 62.4612C157.343 62.5891 157.495 62.6531 157.671 62.6531ZM160.958 66.2836C160.707 66.2836 160.481 66.2276 160.278 66.1157C160.081 66.0037 159.924 65.8464 159.806 65.6438C159.689 65.4359 159.631 65.188 159.631 64.9002C159.631 64.6176 159.689 64.3724 159.806 64.1645C159.924 63.9566 160.084 63.7966 160.286 63.6847C160.489 63.5727 160.715 63.5167 160.966 63.5167C161.211 63.5167 161.432 63.5727 161.63 63.6847C161.832 63.7966 161.992 63.9566 162.109 64.1645C162.227 64.3724 162.285 64.6176 162.285 64.9002C162.285 65.188 162.227 65.4359 162.109 65.6438C161.992 65.8464 161.832 66.0037 161.63 66.1157C161.432 66.2276 161.209 66.2836 160.958 66.2836ZM160.958 65.6678C161.129 65.6678 161.275 65.6039 161.398 65.4759C161.526 65.348 161.59 65.1561 161.59 64.9002C161.59 64.6443 161.528 64.4523 161.406 64.3244C161.283 64.1911 161.134 64.1245 160.958 64.1245C160.787 64.1245 160.638 64.1911 160.51 64.3244C160.382 64.4523 160.318 64.6443 160.318 64.9002C160.318 65.1561 160.38 65.348 160.502 65.4759C160.63 65.6039 160.782 65.6678 160.958 65.6678Z" fill="#0E803B"/>
<path fill-rule="evenodd" clip-rule="evenodd" d="M35.6433 119.003C40.2438 119.003 43.9732 122.732 43.9732 127.333L43.9732 154.655C43.9732 159.255 40.2438 162.985 35.6433 162.985C31.0429 162.985 27.3135 159.255 27.3135 154.655L27.3135 127.333C27.3135 122.732 31.0429 119.003 35.6433 119.003Z" fill="#7551DC"/>
<path fill-rule="evenodd" clip-rule="evenodd" d="M67.1306 109.007C71.7311 109.007 75.4605 112.736 75.4605 117.337L75.4605 154.655C75.4605 159.255 71.7311 162.985 67.1306 162.985C62.5302 162.985 58.8008 159.255 58.8008 154.655L58.8008 117.337C58.8008 112.736 62.5302 109.007 67.1306 109.007Z" fill="#7551DC"/>
<path fill-rule="evenodd" clip-rule="evenodd" d="M98.617 104.342C103.217 104.342 106.947 108.072 106.947 112.672L106.947 154.655C106.947 159.255 103.217 162.985 98.617 162.985C94.0165 162.985 90.2871 159.255 90.2871 154.655L90.2871 112.672C90.2871 108.072 94.0165 104.342 98.617 104.342Z" fill="#7551DC"/>
<path fill-rule="evenodd" clip-rule="evenodd" d="M130.104 88.3466C134.705 88.3466 138.434 92.076 138.434 96.6765V154.655C138.434 159.255 134.705 162.985 130.104 162.985C125.504 162.985 121.774 159.255 121.774 154.655V96.6765C121.774 92.076 125.504 88.3466 130.104 88.3466Z" fill="#7551DC"/>
<path fill-rule="evenodd" clip-rule="evenodd" d="M161.591 88.349C166.191 88.349 169.92 92.0784 169.92 96.6789L169.92 154.655C169.92 159.255 166.191 162.985 161.591 162.985C156.99 162.985 153.261 159.255 153.261 154.655L153.261 96.6789C153.261 92.0784 156.99 88.349 161.591 88.349Z" fill="#7551DC"/>
<g filter="url(#filter0_d_2042_14)">
<rect x="47.6582" y="133.171" width="180.684" height="67.7501" rx="33.8751" fill="white" shape-rendering="crispEdges"/>
<circle cx="81.5331" cy="167.046" r="21.2704" fill="#FFCC6A"/>
<path d="M72.3418 167.417L81.6419 158.117M81.6419 158.117L90.9421 167.417M81.6419 158.117V176.718" stroke="#7551DC" stroke-width="3.15117" stroke-linecap="round" stroke-linejoin="round"/>
<path d="M111.517 159.945V151.545H116.629V152.373H112.525V155.325H116.017V156.141H112.525V159.945H111.517ZM119.961 160.089C119.401 160.089 118.897 159.961 118.449 159.705C118.001 159.449 117.645 159.089 117.381 158.625C117.125 158.153 116.997 157.601 116.997 156.969C116.997 156.337 117.129 155.789 117.393 155.325C117.657 154.853 118.013 154.489 118.461 154.233C118.917 153.977 119.425 153.849 119.985 153.849C120.545 153.849 121.049 153.977 121.497 154.233C121.945 154.489 122.297 154.853 122.553 155.325C122.817 155.789 122.949 156.337 122.949 156.969C122.949 157.601 122.817 158.153 122.553 158.625C122.289 159.089 121.929 159.449 121.473 159.705C121.025 159.961 120.521 160.089 119.961 160.089ZM119.961 159.225C120.305 159.225 120.625 159.141 120.921 158.973C121.217 158.805 121.457 158.553 121.641 158.217C121.825 157.881 121.917 157.465 121.917 156.969C121.917 156.473 121.825 156.057 121.641 155.721C121.465 155.385 121.229 155.133 120.933 154.965C120.637 154.797 120.321 154.713 119.985 154.713C119.641 154.713 119.321 154.797 119.025 154.965C118.729 155.133 118.489 155.385 118.305 155.721C118.121 156.057 118.029 156.473 118.029 156.969C118.029 157.465 118.121 157.881 118.305 158.217C118.489 158.553 118.725 158.805 119.013 158.973C119.309 159.141 119.625 159.225 119.961 159.225ZM123.991 159.945V151.305H124.999V159.945H123.991ZM126.291 159.945V151.305H127.299V159.945H126.291ZM131.303 160.089C130.743 160.089 130.239 159.961 129.791 159.705C129.343 159.449 128.987 159.089 128.723 158.625C128.467 158.153 128.339 157.601 128.339 156.969C128.339 156.337 128.471 155.789 128.735 155.325C128.999 154.853 129.355 154.489 129.803 154.233C130.259 153.977 130.767 153.849 131.327 153.849C131.887 153.849 132.391 153.977 132.839 154.233C133.287 154.489 133.639 154.853 133.895 155.325C134.159 155.789 134.291 156.337 134.291 156.969C134.291 157.601 134.159 158.153 133.895 158.625C133.631 159.089 133.271 159.449 132.815 159.705C132.367 159.961 131.863 160.089 131.303 160.089ZM131.303 159.225C131.647 159.225 131.967 159.141 132.263 158.973C132.559 158.805 132.799 158.553 132.983 158.217C133.167 157.881 133.259 157.465 133.259 156.969C133.259 156.473 133.167 156.057 132.983 155.721C132.807 155.385 132.571 155.133 132.275 154.965C131.979 154.797 131.663 154.713 131.327 154.713C130.983 154.713 130.663 154.797 130.367 154.965C130.071 155.133 129.831 155.385 129.647 155.721C129.463 156.057 129.371 156.473 129.371 156.969C129.371 157.465 129.463 157.881 129.647 158.217C129.831 158.553 130.067 158.805 130.355 158.973C130.651 159.141 130.967 159.225 131.303 159.225ZM136.31 159.945L134.57 153.993H135.578L136.838 158.661L138.23 153.993H139.37L140.774 158.661L142.022 153.993H143.042L141.302 159.945H140.27L138.806 155.037L137.342 159.945H136.31ZM146.25 160.089C145.682 160.089 145.178 159.961 144.738 159.705C144.298 159.441 143.95 159.077 143.694 158.613C143.446 158.149 143.322 157.601 143.322 156.969C143.322 156.345 143.446 155.801 143.694 155.337C143.942 154.865 144.286 154.501 144.726 154.245C145.174 153.981 145.69 153.849 146.274 153.849C146.85 153.849 147.346 153.981 147.762 154.245C148.186 154.501 148.51 154.841 148.734 155.265C148.958 155.689 149.07 156.145 149.07 156.633C149.07 156.721 149.066 156.809 149.058 156.897C149.058 156.985 149.058 157.085 149.058 157.197H144.318C144.342 157.653 144.446 158.033 144.63 158.337C144.822 158.633 145.058 158.857 145.338 159.009C145.626 159.161 145.93 159.237 146.25 159.237C146.666 159.237 147.014 159.141 147.294 158.949C147.574 158.757 147.778 158.497 147.906 158.169H148.902C148.742 158.721 148.434 159.181 147.978 159.549C147.53 159.909 146.954 160.089 146.25 160.089ZM146.25 154.701C145.77 154.701 145.342 154.849 144.966 155.145C144.598 155.433 144.386 155.857 144.33 156.417H148.074C148.05 155.881 147.866 155.461 147.522 155.157C147.178 154.853 146.754 154.701 146.25 154.701ZM150.046 159.945V153.993H150.958L151.042 155.133C151.226 154.741 151.506 154.429 151.882 154.197C152.258 153.965 152.722 153.849 153.274 153.849V154.905H152.998C152.646 154.905 152.322 154.969 152.026 155.097C151.73 155.217 151.494 155.425 151.318 155.721C151.142 156.017 151.054 156.425 151.054 156.945V159.945H150.046ZM156.326 160.089C155.614 160.089 155.022 159.909 154.55 159.549C154.078 159.189 153.802 158.701 153.722 158.085H154.754C154.818 158.397 154.982 158.669 155.246 158.901C155.518 159.125 155.882 159.237 156.338 159.237C156.762 159.237 157.074 159.149 157.274 158.973C157.474 158.789 157.574 158.573 157.574 158.325C157.574 157.965 157.442 157.725 157.178 157.605C156.922 157.485 156.558 157.377 156.086 157.281C155.766 157.217 155.446 157.125 155.126 157.005C154.806 156.885 154.538 156.717 154.322 156.501C154.106 156.277 153.998 155.985 153.998 155.625C153.998 155.105 154.19 154.681 154.574 154.353C154.966 154.017 155.494 153.849 156.158 153.849C156.79 153.849 157.306 154.009 157.706 154.329C158.114 154.641 158.35 155.089 158.414 155.673H157.418C157.378 155.369 157.246 155.133 157.022 154.965C156.806 154.789 156.514 154.701 156.146 154.701C155.786 154.701 155.506 154.777 155.306 154.929C155.114 155.081 155.018 155.281 155.018 155.529C155.018 155.769 155.142 155.957 155.39 156.093C155.646 156.229 155.99 156.345 156.422 156.441C156.79 156.521 157.138 156.621 157.466 156.741C157.802 156.853 158.074 157.025 158.282 157.257C158.498 157.481 158.606 157.809 158.606 158.241C158.614 158.777 158.41 159.221 157.994 159.573C157.586 159.917 157.03 160.089 156.326 160.089Z" fill="#9E9E9E"/>
<path d="M116.829 184.386C115.896 184.386 115.049 184.22 114.289 183.886C113.542 183.54 112.942 183.06 112.489 182.446C112.049 181.833 111.829 181.113 111.829 180.286C111.829 179.446 112.062 178.693 112.529 178.026C113.009 177.36 113.642 176.906 114.429 176.666C113.722 176.386 113.176 175.98 112.789 175.446C112.402 174.9 112.209 174.3 112.209 173.646C112.209 172.966 112.389 172.346 112.749 171.786C113.109 171.213 113.629 170.76 114.309 170.426C115.002 170.08 115.842 169.906 116.829 169.906C117.816 169.906 118.649 170.08 119.329 170.426C120.022 170.76 120.549 171.213 120.909 171.786C121.269 172.346 121.449 172.966 121.449 173.646C121.449 174.286 121.249 174.886 120.849 175.446C120.462 175.993 119.916 176.4 119.209 176.666C119.996 176.92 120.622 177.38 121.089 178.046C121.569 178.7 121.809 179.446 121.809 180.286C121.809 181.113 121.589 181.833 121.149 182.446C120.709 183.06 120.109 183.54 119.349 183.886C118.602 184.22 117.762 184.386 116.829 184.386ZM116.829 175.986C117.602 175.986 118.209 175.786 118.649 175.386C119.102 174.986 119.329 174.473 119.329 173.846C119.329 173.14 119.109 172.6 118.669 172.226C118.229 171.853 117.616 171.666 116.829 171.666C116.042 171.666 115.429 171.853 114.989 172.226C114.549 172.6 114.329 173.14 114.329 173.846C114.329 174.473 114.549 174.986 114.989 175.386C115.429 175.786 116.042 175.986 116.829 175.986ZM116.829 182.586C117.789 182.586 118.509 182.36 118.989 181.906C119.469 181.44 119.709 180.846 119.709 180.126C119.709 179.326 119.449 178.713 118.929 178.286C118.422 177.846 117.722 177.626 116.829 177.626C115.936 177.626 115.229 177.846 114.709 178.286C114.189 178.713 113.929 179.326 113.929 180.126C113.929 180.846 114.169 181.44 114.649 181.906C115.142 182.36 115.869 182.586 116.829 182.586ZM127.424 184.386C126.504 184.386 125.717 184.206 125.064 183.846C124.411 183.486 123.897 183.006 123.524 182.406C123.164 181.806 122.944 181.153 122.864 180.446H124.844C124.964 181.14 125.251 181.673 125.704 182.046C126.157 182.42 126.737 182.606 127.444 182.606C128.417 182.606 129.217 182.153 129.844 181.246C130.484 180.326 130.824 178.92 130.864 177.026C130.544 177.613 130.044 178.113 129.364 178.526C128.697 178.94 127.924 179.146 127.044 179.146C126.257 179.146 125.517 178.96 124.824 178.586C124.131 178.213 123.571 177.693 123.144 177.026C122.717 176.346 122.504 175.546 122.504 174.626C122.504 173.813 122.704 173.046 123.104 172.326C123.504 171.606 124.064 171.026 124.784 170.586C125.517 170.133 126.384 169.906 127.384 169.906C128.411 169.906 129.277 170.1 129.984 170.486C130.691 170.873 131.257 171.386 131.684 172.026C132.111 172.666 132.417 173.386 132.604 174.186C132.804 174.986 132.904 175.806 132.904 176.646C132.904 178.193 132.684 179.546 132.244 180.706C131.817 181.866 131.197 182.773 130.384 183.426C129.571 184.066 128.584 184.386 127.424 184.386ZM127.524 177.326C128.084 177.326 128.584 177.2 129.024 176.946C129.464 176.693 129.811 176.36 130.064 175.946C130.331 175.52 130.464 175.053 130.464 174.546C130.464 174 130.331 173.52 130.064 173.106C129.811 172.68 129.457 172.346 129.004 172.106C128.564 171.866 128.064 171.746 127.504 171.746C126.944 171.746 126.444 171.866 126.004 172.106C125.564 172.346 125.211 172.68 124.944 173.106C124.691 173.52 124.564 173.993 124.564 174.526C124.564 175.38 124.844 176.06 125.404 176.566C125.964 177.073 126.671 177.326 127.524 177.326ZM132.901 186.506L134.061 181.786H136.161L134.321 186.506H132.901ZM141.923 184.386C140.936 184.386 140.083 184.213 139.363 183.866C138.643 183.506 138.069 183.02 137.643 182.406C137.229 181.78 136.976 181.073 136.883 180.286H138.963C139.096 180.953 139.429 181.506 139.963 181.946C140.496 182.373 141.156 182.586 141.943 182.586C142.529 182.586 143.036 182.446 143.463 182.166C143.889 181.873 144.223 181.486 144.463 181.006C144.703 180.526 144.823 179.986 144.823 179.386C144.823 178.44 144.556 177.686 144.023 177.126C143.489 176.553 142.816 176.266 142.003 176.266C141.309 176.266 140.716 176.433 140.223 176.766C139.729 177.086 139.369 177.493 139.143 177.986H137.123L138.323 170.146H145.883V172.006H139.923L139.203 175.746C139.509 175.4 139.929 175.113 140.463 174.886C141.009 174.646 141.623 174.526 142.303 174.526C143.249 174.526 144.063 174.746 144.743 175.186C145.423 175.613 145.943 176.193 146.303 176.926C146.676 177.66 146.863 178.473 146.863 179.366C146.863 180.3 146.663 181.146 146.263 181.906C145.863 182.666 145.289 183.273 144.543 183.726C143.809 184.166 142.936 184.386 141.923 184.386ZM152.647 184.386C151.74 184.386 150.914 184.226 150.167 183.906C149.434 183.573 148.847 183.073 148.407 182.406C147.967 181.74 147.734 180.906 147.707 179.906H149.807C149.834 180.653 150.087 181.286 150.567 181.806C151.06 182.313 151.754 182.566 152.647 182.566C153.5 182.566 154.154 182.333 154.607 181.866C155.06 181.386 155.287 180.793 155.287 180.086C155.287 179.233 154.98 178.6 154.367 178.186C153.767 177.773 153.027 177.566 152.147 177.566H151.107V175.806H152.167C152.954 175.806 153.587 175.62 154.067 175.246C154.56 174.873 154.807 174.346 154.807 173.666C154.807 173.093 154.614 172.626 154.227 172.266C153.854 171.906 153.32 171.726 152.627 171.726C151.907 171.726 151.34 171.94 150.927 172.366C150.514 172.78 150.287 173.3 150.247 173.926H148.147C148.174 173.113 148.374 172.406 148.747 171.806C149.134 171.206 149.66 170.74 150.327 170.406C150.994 170.073 151.76 169.906 152.627 169.906C153.56 169.906 154.34 170.073 154.967 170.406C155.607 170.726 156.087 171.166 156.407 171.726C156.74 172.273 156.907 172.873 156.907 173.526C156.907 174.273 156.7 174.926 156.287 175.486C155.874 176.046 155.32 176.42 154.627 176.606C155.427 176.78 156.087 177.173 156.607 177.786C157.127 178.386 157.387 179.166 157.387 180.126C157.387 180.9 157.207 181.613 156.847 182.266C156.487 182.906 155.954 183.42 155.247 183.806C154.54 184.193 153.674 184.386 152.647 184.386ZM158.523 184.146V182.626C159.429 181.906 160.296 181.18 161.123 180.446C161.949 179.713 162.683 178.993 163.323 178.286C163.976 177.566 164.489 176.866 164.863 176.186C165.236 175.493 165.423 174.826 165.423 174.186C165.423 173.76 165.349 173.36 165.203 172.986C165.056 172.6 164.816 172.293 164.483 172.066C164.149 171.826 163.703 171.706 163.143 171.706C162.303 171.706 161.669 171.973 161.243 172.506C160.829 173.04 160.629 173.68 160.643 174.426H158.583C158.596 173.44 158.803 172.613 159.203 171.946C159.616 171.28 160.163 170.773 160.843 170.426C161.536 170.08 162.316 169.906 163.183 169.906C164.503 169.906 165.556 170.28 166.343 171.026C167.143 171.76 167.543 172.786 167.543 174.106C167.543 174.893 167.349 175.673 166.963 176.446C166.589 177.22 166.096 177.966 165.483 178.686C164.883 179.393 164.236 180.06 163.543 180.686C162.849 181.313 162.189 181.88 161.563 182.386H167.963V184.146H158.523Z" fill="#121212"/>
<rect x="182.233" y="169.046" width="33.5039" height="16.2016" rx="5.25195" fill="#DAFFE9"/>
<path d="M187.965 178.179V177.467H189.477V176.052H190.212V177.467H191.724V178.179H190.212V179.603H189.477V178.179H187.965ZM192.946 180.146V175.508L192.042 175.716V175.092L193.282 174.549H193.825V180.146H192.946ZM194.451 180.146V179.539C194.813 179.251 195.16 178.96 195.491 178.667C195.821 178.374 196.114 178.086 196.37 177.803C196.631 177.515 196.837 177.236 196.986 176.964C197.135 176.686 197.21 176.42 197.21 176.164C197.21 175.993 197.18 175.833 197.122 175.684C197.063 175.53 196.967 175.407 196.834 175.316C196.701 175.22 196.522 175.172 196.298 175.172C195.962 175.172 195.709 175.279 195.538 175.492C195.373 175.706 195.293 175.961 195.299 176.26H194.475C194.48 175.865 194.563 175.535 194.723 175.268C194.888 175.002 195.107 174.799 195.379 174.661C195.656 174.522 195.968 174.453 196.314 174.453C196.842 174.453 197.263 174.602 197.578 174.901C197.898 175.194 198.057 175.604 198.057 176.132C198.057 176.447 197.98 176.758 197.826 177.068C197.676 177.377 197.479 177.675 197.234 177.963C196.994 178.246 196.735 178.512 196.458 178.763C196.181 179.014 195.917 179.24 195.666 179.443H198.225V180.146H194.451ZM200.916 180.242C200.409 180.242 199.972 180.122 199.604 179.882C199.242 179.637 198.962 179.299 198.765 178.867C198.573 178.43 198.477 177.923 198.477 177.348C198.477 176.772 198.573 176.268 198.765 175.836C198.962 175.399 199.242 175.06 199.604 174.821C199.972 174.575 200.409 174.453 200.916 174.453C201.422 174.453 201.857 174.575 202.219 174.821C202.582 175.06 202.859 175.399 203.051 175.836C203.248 176.268 203.347 176.772 203.347 177.348C203.347 177.923 203.248 178.43 203.051 178.867C202.859 179.299 202.582 179.637 202.219 179.882C201.857 180.122 201.422 180.242 200.916 180.242ZM200.916 179.483C201.22 179.483 201.489 179.397 201.724 179.227C201.963 179.056 202.15 178.811 202.283 178.491C202.417 178.171 202.483 177.79 202.483 177.348C202.483 176.905 202.417 176.524 202.283 176.204C202.15 175.884 201.963 175.639 201.724 175.468C201.489 175.298 201.22 175.212 200.916 175.212C200.607 175.212 200.335 175.298 200.1 175.468C199.866 175.639 199.682 175.884 199.548 176.204C199.415 176.524 199.349 176.905 199.349 177.348C199.349 177.79 199.415 178.171 199.548 178.491C199.682 178.811 199.866 179.056 200.1 179.227C200.335 179.397 200.607 179.483 200.916 179.483ZM204.971 177.22C204.721 177.22 204.494 177.164 204.292 177.052C204.094 176.94 203.937 176.782 203.82 176.58C203.703 176.372 203.644 176.124 203.644 175.836C203.644 175.554 203.703 175.311 203.82 175.108C203.937 174.901 204.097 174.741 204.3 174.629C204.502 174.517 204.729 174.461 204.979 174.461C205.225 174.461 205.446 174.517 205.643 174.629C205.846 174.741 206.006 174.901 206.123 175.108C206.24 175.311 206.299 175.554 206.299 175.836C206.299 176.124 206.24 176.372 206.123 176.58C206.006 176.782 205.846 176.94 205.643 177.052C205.446 177.164 205.222 177.22 204.971 177.22ZM204.572 180.146L207.778 174.549H208.61L205.411 180.146H204.572ZM204.971 176.612C205.142 176.612 205.289 176.548 205.411 176.42C205.539 176.287 205.603 176.092 205.603 175.836C205.603 175.58 205.542 175.388 205.419 175.26C205.297 175.127 205.147 175.06 204.971 175.06C204.801 175.06 204.652 175.127 204.524 175.26C204.396 175.388 204.332 175.58 204.332 175.836C204.332 176.092 204.393 176.287 204.516 176.42C204.644 176.548 204.795 176.612 204.971 176.612ZM208.258 180.242C208.007 180.242 207.781 180.186 207.578 180.074C207.381 179.962 207.224 179.805 207.106 179.603C206.989 179.395 206.931 179.147 206.931 178.859C206.931 178.576 206.989 178.331 207.106 178.123C207.224 177.915 207.384 177.755 207.586 177.643C207.789 177.531 208.015 177.475 208.266 177.475C208.511 177.475 208.732 177.531 208.93 177.643C209.132 177.755 209.292 177.915 209.41 178.123C209.527 178.331 209.585 178.576 209.585 178.859C209.585 179.147 209.527 179.395 209.41 179.603C209.292 179.805 209.132 179.962 208.93 180.074C208.732 180.186 208.509 180.242 208.258 180.242ZM208.258 179.627C208.429 179.627 208.575 179.563 208.698 179.435C208.826 179.307 208.89 179.115 208.89 178.859C208.89 178.603 208.828 178.411 208.706 178.283C208.583 178.15 208.434 178.083 208.258 178.083C208.087 178.083 207.938 178.15 207.81 178.283C207.682 178.411 207.618 178.603 207.618 178.859C207.618 179.115 207.68 179.307 207.802 179.435C207.93 179.563 208.082 179.627 208.258 179.627Z" fill="#0E803B"/>
</g>
<defs>
<filter id="filter0_d_2042_14" x="13.4231" y="120.455" width="229.591" height="116.657" filterUnits="userSpaceOnUse" color-interpolation-filters="sRGB">
<feFlood flood-opacity="0" result="BackgroundImageFix"/>
<feColorMatrix in="SourceAlpha" type="matrix" values="0 0 0 0 0 0 0 0 0 0 0 0 0 0 0 0 0 0 127 0" result="hardAlpha"/>
<feOffset dx="-9.78145" dy="11.7377"/>
<feGaussianBlur stdDeviation="12.2268"/>
<feComposite in2="hardAlpha" operator="out"/>
<feColorMatrix type="matrix" values="0 0 0 0 0.384371 0 0 0 0 0.102708 0 0 0 0 0.483333 0 0 0 0.05 0"/>
<feBlend mode="normal" in2="BackgroundImageFix" result="effect1_dropShadow_2042_14"/>
<feBlend mode="normal" in="SourceGraphic" in2="effect1_dropShadow_2042_14" result="shape"/>
</filter>
</defs>
</svg>
