<svg width="309" height="274" viewBox="0 0 309 274" fill="none" xmlns="http://www.w3.org/2000/svg">
<rect x="0.469727" y="0.790771" width="308.06" height="272.91" rx="16.8549" fill="white"/>
<path d="M19.7488 36.9108V25.4842H24.0583C25.2444 25.4842 26.1422 25.7618 26.7517 26.3168C27.3611 26.8718 27.6658 27.5682 27.6658 28.4062C27.6658 29.1353 27.4699 29.7175 27.0781 30.1528C26.6864 30.5772 26.213 30.8656 25.658 31.018C26.0933 31.105 26.4796 31.2791 26.817 31.5403C27.1652 31.8015 27.4373 32.128 27.6331 32.5197C27.829 32.9115 27.927 33.3359 27.927 33.793C27.927 34.3806 27.7801 34.9139 27.4862 35.3927C27.2033 35.8606 26.7843 36.2306 26.2293 36.5027C25.6743 36.7748 24.9942 36.9108 24.1889 36.9108H19.7488ZM21.4791 30.3813H23.8461C24.5099 30.3813 25.0159 30.229 25.3642 29.9243C25.7124 29.6087 25.8865 29.1788 25.8865 28.6347C25.8865 28.1015 25.7124 27.6771 25.3642 27.3615C25.0268 27.0459 24.5099 26.8881 23.8134 26.8881H21.4791V30.3813ZM21.4791 35.4906H23.9603C24.6568 35.4906 25.1955 35.3274 25.5764 35.0009C25.9681 34.6745 26.164 34.2174 26.164 33.6297C26.164 33.0421 25.9627 32.5796 25.56 32.2422C25.1574 31.894 24.6133 31.7199 23.9277 31.7199H21.4791V35.4906ZM32.7292 37.1067C31.9348 37.1067 31.2274 36.9326 30.6071 36.5843C29.9977 36.2252 29.5189 35.7301 29.1706 35.0989C28.8224 34.4677 28.6483 33.7331 28.6483 32.8952C28.6483 32.0464 28.8169 31.3009 29.1543 30.6588C29.5025 30.0168 29.9814 29.5162 30.5908 29.1571C31.2111 28.7979 31.9293 28.6184 32.7455 28.6184C33.5399 28.6184 34.231 28.7979 34.8186 29.1571C35.4063 29.5053 35.8633 29.9733 36.1898 30.5609C36.5163 31.1486 36.6795 31.7961 36.6795 32.5034C36.6795 32.6122 36.6741 32.7319 36.6632 32.8625C36.6632 32.9822 36.6577 33.1183 36.6468 33.2706H30.3459C30.4003 34.0542 30.6561 34.6527 31.1131 35.0662C31.5811 35.4689 32.1198 35.6702 32.7292 35.6702C33.2189 35.6702 33.627 35.5614 33.9534 35.3437C34.2908 35.1152 34.5411 34.8105 34.7043 34.4296H36.4346C36.217 35.1914 35.7817 35.828 35.1288 36.3395C34.4867 36.8509 33.6868 37.1067 32.7292 37.1067ZM32.7292 30.0385C32.1524 30.0385 31.6409 30.2127 31.1948 30.5609C30.7486 30.8983 30.4765 31.4097 30.3786 32.0953H34.9492C34.9165 31.4641 34.6935 30.9636 34.2799 30.5935C33.8664 30.2235 33.3495 30.0385 32.7292 30.0385ZM40.8907 37.1067C39.8678 37.1067 39.0244 36.8564 38.3606 36.3558C37.6967 35.8552 37.3159 35.1914 37.2179 34.3643H38.9646C39.0516 34.7343 39.2584 35.0553 39.5848 35.3274C39.9113 35.5886 40.3412 35.7192 40.8744 35.7192C41.3968 35.7192 41.7777 35.6103 42.0171 35.3927C42.2565 35.1751 42.3762 34.9248 42.3762 34.6418C42.3762 34.2283 42.2075 33.9508 41.8702 33.8093C41.5437 33.657 41.0866 33.5209 40.499 33.4012C40.0419 33.3033 39.5848 33.1727 39.1278 33.0094C38.6816 32.8462 38.3062 32.6177 38.0015 32.3239C37.7076 32.0191 37.5607 31.6111 37.5607 31.0996C37.5607 30.3922 37.8328 29.8046 38.3769 29.3366C38.921 28.8578 39.6828 28.6184 40.6622 28.6184C41.5655 28.6184 42.2946 28.836 42.8496 29.2713C43.4155 29.7066 43.7474 30.3215 43.8453 31.1159H42.1803C42.1259 30.7677 41.9627 30.4956 41.6906 30.2997C41.4294 30.1038 41.0757 30.0059 40.6296 30.0059C40.1943 30.0059 39.8569 30.0984 39.6175 30.2834C39.3781 30.4575 39.2584 30.686 39.2584 30.969C39.2584 31.2519 39.4216 31.475 39.7481 31.6383C40.0854 31.8015 40.5262 31.9484 41.0703 32.079C41.6144 32.1987 42.115 32.3402 42.5721 32.5034C43.04 32.6558 43.4155 32.8843 43.6984 33.189C43.9813 33.4937 44.1228 33.9399 44.1228 34.5275C44.1337 35.2676 43.8453 35.8824 43.2577 36.3721C42.6809 36.8618 41.8919 37.1067 40.8907 37.1067ZM48.288 36.9108C47.4936 36.9108 46.8624 36.7204 46.3945 36.3395C45.9265 35.9477 45.6926 35.2567 45.6926 34.2664V30.2671H44.3051V28.8143H45.6926L45.9048 26.7575H47.4229V28.8143H49.7082V30.2671H47.4229V34.2664C47.4229 34.7125 47.5154 35.0227 47.7004 35.1968C47.8963 35.3601 48.2282 35.4417 48.6961 35.4417H49.6266V36.9108H48.288ZM56.7151 36.9108V26.8881H53.3361V25.4842H61.8081V26.8881H58.4454V36.9108H56.7151ZM63.5253 27.2798C63.1988 27.2798 62.9267 27.1819 62.7091 26.986C62.5023 26.7793 62.3989 26.5235 62.3989 26.2188C62.3989 25.9141 62.5023 25.6638 62.7091 25.4679C62.9267 25.2612 63.1988 25.1578 63.5253 25.1578C63.8517 25.1578 64.1183 25.2612 64.3251 25.4679C64.5428 25.6638 64.6516 25.9141 64.6516 26.2188C64.6516 26.5235 64.5428 26.7793 64.3251 26.986C64.1183 27.1819 63.8517 27.2798 63.5253 27.2798ZM62.6601 36.9108V28.8143H64.3904V36.9108H62.6601ZM65.8584 36.9108V28.8143H67.3928L67.5397 29.9569C67.8009 29.5434 68.1437 29.2169 68.5681 28.9775C69.0034 28.7381 69.504 28.6184 70.0699 28.6184C71.354 28.6184 72.2464 29.1244 72.747 30.1365C73.0408 29.6685 73.4326 29.2985 73.9223 29.0265C74.4229 28.7544 74.9615 28.6184 75.5383 28.6184C76.5504 28.6184 77.3448 28.9231 77.9216 29.5325C78.4983 30.1419 78.7867 31.0506 78.7867 32.2586V36.9108H77.0564V32.4381C77.0564 30.8711 76.4579 30.0875 75.2608 30.0875C74.6514 30.0875 74.1508 30.316 73.759 30.7731C73.3781 31.2302 73.1877 31.8831 73.1877 32.7319V36.9108H71.4574V32.4381C71.4574 30.8711 70.8534 30.0875 69.6455 30.0875C69.0469 30.0875 68.5518 30.316 68.16 30.7731C67.7791 31.2302 67.5887 31.8831 67.5887 32.7319V36.9108H65.8584ZM83.782 37.1067C82.9876 37.1067 82.2802 36.9326 81.6599 36.5843C81.0505 36.2252 80.5717 35.7301 80.2234 35.0989C79.8752 34.4677 79.7011 33.7331 79.7011 32.8952C79.7011 32.0464 79.8698 31.3009 80.2071 30.6588C80.5554 30.0168 81.0342 29.5162 81.6436 29.1571C82.2639 28.7979 82.9821 28.6184 83.7983 28.6184C84.5927 28.6184 85.2838 28.7979 85.8714 29.1571C86.4591 29.5053 86.9161 29.9733 87.2426 30.5609C87.5691 31.1486 87.7323 31.7961 87.7323 32.5034C87.7323 32.6122 87.7269 32.7319 87.716 32.8625C87.716 32.9822 87.7106 33.1183 87.6997 33.2706H81.3987C81.4532 34.0542 81.7089 34.6527 82.166 35.0662C82.6339 35.4689 83.1726 35.6702 83.782 35.6702C84.2717 35.6702 84.6798 35.5614 85.0063 35.3437C85.3436 35.1152 85.5939 34.8105 85.7572 34.4296H87.4875C87.2698 35.1914 86.8345 35.828 86.1816 36.3395C85.5395 36.8509 84.7396 37.1067 83.782 37.1067ZM83.782 30.0385C83.2052 30.0385 82.6938 30.2127 82.2476 30.5609C81.8014 30.8983 81.5293 31.4097 81.4314 32.0953H86.002C85.9694 31.4641 85.7463 30.9636 85.3327 30.5935C84.9192 30.2235 84.4023 30.0385 83.782 30.0385ZM95.4034 36.9108C94.609 36.9108 93.9778 36.7204 93.5099 36.3395C93.0419 35.9477 92.8079 35.2567 92.8079 34.2664V30.2671H91.4204V28.8143H92.8079L93.0202 26.7575H94.5383V28.8143H96.8236V30.2671H94.5383V34.2664C94.5383 34.7125 94.6308 35.0227 94.8158 35.1968C95.0116 35.3601 95.3436 35.4417 95.8115 35.4417H96.7419V36.9108H95.4034ZM101.371 37.1067C100.599 37.1067 99.9022 36.9326 99.2819 36.5843C98.6725 36.2252 98.1882 35.7301 97.8291 35.0989C97.47 34.4568 97.2904 33.7114 97.2904 32.8625C97.2904 32.0137 97.47 31.2737 97.8291 30.6425C98.1991 30.0005 98.6943 29.5053 99.3146 29.1571C99.9349 28.7979 100.626 28.6184 101.388 28.6184C102.16 28.6184 102.851 28.7979 103.461 29.1571C104.081 29.5053 104.571 30.0005 104.93 30.6425C105.3 31.2737 105.485 32.0137 105.485 32.8625C105.485 33.7114 105.3 34.4568 104.93 35.0989C104.571 35.7301 104.081 36.2252 103.461 36.5843C102.84 36.9326 102.144 37.1067 101.371 37.1067ZM101.371 35.6212C101.785 35.6212 102.166 35.5178 102.514 35.3111C102.873 35.1043 103.162 34.7996 103.379 34.397C103.597 33.9834 103.706 33.472 103.706 32.8625C103.706 32.2531 103.597 31.7471 103.379 31.3444C103.172 30.9309 102.889 30.6208 102.53 30.414C102.182 30.2072 101.801 30.1038 101.388 30.1038C100.974 30.1038 100.588 30.2072 100.229 30.414C99.8805 30.6208 99.5975 30.9309 99.3799 31.3444C99.1622 31.7471 99.0534 32.2531 99.0534 32.8625C99.0534 33.472 99.1622 33.9834 99.3799 34.397C99.5975 34.7996 99.8805 35.1043 100.229 35.3111C100.577 35.5178 100.958 35.6212 101.371 35.6212ZM109.902 36.9108V25.4842H113.901C114.794 25.4842 115.534 25.6366 116.121 25.9413C116.709 26.2351 117.144 26.6432 117.427 27.1656C117.721 27.6771 117.868 28.2593 117.868 28.9122C117.868 29.5325 117.726 30.1038 117.443 30.6262C117.171 31.1377 116.741 31.5458 116.154 31.8505C115.566 32.1552 114.815 32.3075 113.901 32.3075H111.632V36.9108H109.902ZM111.632 30.8874H113.82C114.636 30.8874 115.218 30.7133 115.566 30.365C115.925 30.0059 116.105 29.5216 116.105 28.9122C116.105 28.281 115.925 27.7913 115.566 27.4431C115.218 27.084 114.636 26.9044 113.82 26.9044H111.632V30.8874ZM122.037 37.1067C121.265 37.1067 120.568 36.9326 119.948 36.5843C119.338 36.2252 118.854 35.7301 118.495 35.0989C118.136 34.4568 117.956 33.7114 117.956 32.8625C117.956 32.0137 118.136 31.2737 118.495 30.6425C118.865 30.0005 119.36 29.5053 119.981 29.1571C120.601 28.7979 121.292 28.6184 122.054 28.6184C122.826 28.6184 123.517 28.7979 124.127 29.1571C124.747 29.5053 125.237 30.0005 125.596 30.6425C125.966 31.2737 126.151 32.0137 126.151 32.8625C126.151 33.7114 125.966 34.4568 125.596 35.0989C125.237 35.7301 124.747 36.2252 124.127 36.5843C123.506 36.9326 122.81 37.1067 122.037 37.1067ZM122.037 35.6212C122.451 35.6212 122.832 35.5178 123.18 35.3111C123.539 35.1043 123.827 34.7996 124.045 34.397C124.263 33.9834 124.372 33.472 124.372 32.8625C124.372 32.2531 124.263 31.7471 124.045 31.3444C123.838 30.9309 123.555 30.6208 123.196 30.414C122.848 30.2072 122.467 30.1038 122.054 30.1038C121.64 30.1038 121.254 30.2072 120.895 30.414C120.546 30.6208 120.263 30.9309 120.046 31.3444C119.828 31.7471 119.719 32.2531 119.719 32.8625C119.719 33.472 119.828 33.9834 120.046 34.397C120.263 34.7996 120.546 35.1043 120.895 35.3111C121.243 35.5178 121.624 35.6212 122.037 35.6212ZM130.438 37.1067C129.415 37.1067 128.572 36.8564 127.908 36.3558C127.244 35.8552 126.863 35.1914 126.765 34.3643H128.512C128.599 34.7343 128.806 35.0553 129.132 35.3274C129.459 35.5886 129.888 35.7192 130.422 35.7192C130.944 35.7192 131.325 35.6103 131.564 35.3927C131.804 35.1751 131.923 34.9248 131.923 34.6418C131.923 34.2283 131.755 33.9508 131.417 33.8093C131.091 33.657 130.634 33.5209 130.046 33.4012C129.589 33.3033 129.132 33.1727 128.675 33.0094C128.229 32.8462 127.853 32.6177 127.549 32.3239C127.255 32.0191 127.108 31.6111 127.108 31.0996C127.108 30.3922 127.38 29.8046 127.924 29.3366C128.468 28.8578 129.23 28.6184 130.209 28.6184C131.113 28.6184 131.842 28.836 132.397 29.2713C132.963 29.7066 133.295 30.3215 133.393 31.1159H131.728C131.673 30.7677 131.51 30.4956 131.238 30.2997C130.977 30.1038 130.623 30.0059 130.177 30.0059C129.742 30.0059 129.404 30.0984 129.165 30.2834C128.925 30.4575 128.806 30.686 128.806 30.969C128.806 31.2519 128.969 31.475 129.295 31.6383C129.633 31.8015 130.073 31.9484 130.618 32.079C131.162 32.1987 131.662 32.3402 132.119 32.5034C132.587 32.6558 132.963 32.8843 133.246 33.189C133.529 33.4937 133.67 33.9399 133.67 34.5275C133.681 35.2676 133.393 35.8824 132.805 36.3721C132.228 36.8618 131.439 37.1067 130.438 37.1067ZM137.835 36.9108C137.041 36.9108 136.41 36.7204 135.942 36.3395C135.474 35.9477 135.24 35.2567 135.24 34.2664V30.2671H133.852V28.8143H135.24L135.452 26.7575H136.97V28.8143H139.255V30.2671H136.97V34.2664C136.97 34.7125 137.063 35.0227 137.248 35.1968C137.444 35.3601 137.775 35.4417 138.243 35.4417H139.174V36.9108H137.835Z" fill="#091E42"/>
<path d="M18.5898 54.9908H290.41" stroke="#A87C49" stroke-width="0.755001"/>
<rect x="18.5898" y="67.0708" width="41.1" height="24.04" rx="12.02" fill="#FFE5E7"/>
<path d="M30.9717 84.0908L28.7006 78.3286V84.0908H27.0336V75.4173H29.2321L31.7448 81.8439L34.2695 75.4173H36.4681V84.0908H34.801V78.2803L32.5058 84.0908H30.9717ZM40.9465 84.2116C39.0741 84.2116 37.6729 82.7378 37.6729 80.8654C37.6729 78.9809 39.0741 77.5193 40.9465 77.5193C42.8189 77.5193 44.2202 78.9809 44.2202 80.8654C44.2202 82.7378 42.8189 84.2116 40.9465 84.2116ZM40.9465 82.7257C41.7801 82.7257 42.4928 82.0613 42.4928 80.8654C42.4928 79.6695 41.7801 79.0172 40.9465 79.0172C40.113 79.0172 39.4003 79.6695 39.4003 80.8654C39.4003 82.0613 40.113 82.7257 40.9465 82.7257ZM46.9709 80.5755V84.0908H45.2918V77.6401H46.838V78.5581C47.3091 77.9179 47.9735 77.5193 48.8191 77.5193C50.1117 77.5193 51.0056 78.3649 51.0056 79.9232V84.0908H49.3386V80.4909C49.3386 79.5366 48.9641 79.0051 48.203 79.0051C47.5386 79.0051 46.9709 79.5366 46.9709 80.5755Z" fill="#DC5172"/>
<path d="M81.8564 84.0908H80.9625V76.2267H78.0512V75.4173H84.7677V76.2267H81.8564V84.0908ZM89.4521 81.5177V77.7246H90.2856V84.0908H89.5004V82.9432C89.1742 83.6801 88.4011 84.2116 87.4709 84.2116C86.1784 84.2116 85.3207 83.4747 85.3207 81.8681V77.7246H86.1663V81.6869C86.1663 82.9794 86.8065 83.4747 87.7005 83.4747C88.7152 83.4747 89.4521 82.6533 89.4521 81.5177ZM94.6177 84.2116C92.8298 84.2116 91.646 82.8707 91.646 80.8533C91.646 78.993 92.8782 77.6038 94.5694 77.6038C96.3814 77.6038 97.5652 79.0655 97.4202 81.107H92.4916C92.5641 82.617 93.3614 83.5472 94.6056 83.5472C95.6686 83.5472 96.4055 82.9553 96.6109 81.9405H97.4444C97.1545 83.3539 96.0794 84.2116 94.6177 84.2116ZM94.5573 78.2561C93.4097 78.2561 92.6003 79.138 92.4916 80.5272H96.5384C96.4659 79.1017 95.729 78.2561 94.5573 78.2561Z" fill="#8F8F8F"/>
<path d="M124.552 84.0908L122.523 76.6495L120.481 84.0908H119.539L117.256 75.4173H118.138L120.01 82.7741L122.04 75.4173H123.006L125.011 82.7982L126.896 75.4173H127.79L125.506 84.0908H124.552ZM130.954 84.2116C129.166 84.2116 127.982 82.8707 127.982 80.8533C127.982 78.993 129.214 77.6038 130.905 77.6038C132.717 77.6038 133.901 79.0655 133.756 81.107H128.828C128.9 82.617 129.697 83.5472 130.942 83.5472C132.005 83.5472 132.742 82.9553 132.947 81.9405H133.78C133.491 83.3539 132.415 84.2116 130.954 84.2116ZM130.893 78.2561C129.746 78.2561 128.936 79.138 128.828 80.5272H132.874C132.802 79.1017 132.065 78.2561 130.893 78.2561ZM134.565 80.9017C134.565 78.9447 135.652 77.6038 137.367 77.6038C138.322 77.6038 139.131 78.1474 139.554 79.0534V75.4173H140.399V84.0908H139.614V82.7499C139.167 83.6801 138.346 84.2116 137.367 84.2116C135.652 84.2116 134.565 82.8586 134.565 80.9017ZM135.422 80.9017C135.422 82.5204 136.244 83.4747 137.488 83.4747C138.72 83.4747 139.566 82.4721 139.566 80.8775C139.566 79.2709 138.696 78.3407 137.488 78.3407C136.244 78.3407 135.422 79.2829 135.422 80.9017Z" fill="#8F8F8F"/>
<path d="M164.097 84.0908H163.203V76.2267H160.291V75.4173H167.008V76.2267H164.097V84.0908ZM169.01 80.3822V84.0908H168.164V75.4173H169.01V78.8964C169.408 78.1353 170.133 77.6038 171.051 77.6038C172.38 77.6038 173.238 78.4494 173.238 79.9594V84.0908H172.392V80.2493C172.392 79.0293 171.836 78.3407 170.797 78.3407C169.807 78.3407 169.01 79.1984 169.01 80.3822ZM179.089 81.5177V77.7246H179.922V84.0908H179.137V82.9432C178.811 83.6801 178.038 84.2116 177.108 84.2116C175.815 84.2116 174.958 83.4747 174.958 81.8681V77.7246H175.803V81.6869C175.803 82.9794 176.443 83.4747 177.337 83.4747C178.352 83.4747 179.089 82.6533 179.089 81.5177Z" fill="#8F8F8F"/>
<path d="M201.054 84.0908H200.148V75.4173H205.125V76.2025H201.054V79.5849H204.558V80.3701H201.054V84.0908ZM207.221 80.6842V84.0908H206.376V77.7246H207.161V79.1742C207.596 78.232 208.538 77.628 209.589 77.628V78.5098C208.248 78.4615 207.221 79.295 207.221 80.6842ZM211.722 76.2509C211.722 76.6253 211.444 76.8911 211.033 76.8911C210.635 76.8911 210.357 76.6253 210.357 76.2509C210.357 75.8885 210.635 75.6227 211.033 75.6227C211.444 75.6227 211.722 75.8885 211.722 76.2509ZM211.468 84.0908H210.623V77.7246H211.468V84.0908Z" fill="#8F8F8F"/>
<path d="M238.345 81.6869C238.345 83.064 237.221 84.2116 235.204 84.2116C233.187 84.2116 232.003 83.0881 231.918 81.4453H232.836C232.921 82.6774 233.694 83.4747 235.192 83.4747C236.424 83.4747 237.39 82.8465 237.39 81.8077C237.39 80.9137 236.883 80.503 235.651 80.2493L234.552 80.0319C233.404 79.8024 232.196 79.2709 232.196 77.7609C232.196 76.3717 233.416 75.2965 235.144 75.2965C236.835 75.2965 238.139 76.3596 238.236 78.0145H237.306C237.245 76.8669 236.4 76.0334 235.156 76.0334C233.827 76.0334 233.114 76.8428 233.114 77.7125C233.114 78.7393 233.984 79.0534 234.95 79.2467L236.05 79.4762C237.511 79.7782 238.345 80.3822 238.345 81.6869ZM243.884 84.0908V82.9311C243.51 83.7284 242.737 84.2116 241.746 84.2116C240.43 84.2116 239.572 83.4747 239.572 82.3271C239.572 81.0829 240.562 80.4305 242.495 80.4305C242.882 80.4305 243.172 80.4547 243.8 80.503V79.9715C243.8 78.9085 243.232 78.2803 242.266 78.2803C241.227 78.2803 240.574 78.9205 240.562 79.9594H239.789C239.826 78.5461 240.804 77.6038 242.254 77.6038C243.739 77.6038 244.609 78.4736 244.609 79.9473V84.0908H243.884ZM240.381 82.3029C240.381 83.0761 240.973 83.5955 241.867 83.5955C243.051 83.5955 243.8 82.8224 243.8 81.6265V81.0587C243.256 81.0104 242.882 80.9983 242.531 80.9983C241.082 80.9983 240.381 81.4211 240.381 82.3029ZM249.626 83.2814V84.0304C249.3 84.1633 249.022 84.2116 248.708 84.2116C247.657 84.2116 246.848 83.668 246.848 82.2909V78.4373H245.35V77.7246H246.848V75.8401H247.693V77.7246H249.687V78.4373H247.693V82.1097C247.693 83.1002 248.177 83.4385 248.877 83.4385C249.143 83.4385 249.361 83.3901 249.626 83.2814Z" fill="#8F8F8F"/>
<path d="M275.465 81.6869C275.465 83.064 274.341 84.2116 272.324 84.2116C270.307 84.2116 269.123 83.0881 269.038 81.4453H269.956C270.041 82.6774 270.814 83.4747 272.312 83.4747C273.544 83.4747 274.511 82.8465 274.511 81.8077C274.511 80.9137 274.003 80.503 272.771 80.2493L271.672 80.0319C270.524 79.8024 269.316 79.2709 269.316 77.7609C269.316 76.3717 270.536 75.2965 272.264 75.2965C273.955 75.2965 275.26 76.3596 275.356 78.0145H274.426C274.366 76.8669 273.52 76.0334 272.276 76.0334C270.947 76.0334 270.234 76.8428 270.234 77.7125C270.234 78.7393 271.104 79.0534 272.07 79.2467L273.17 79.4762C274.631 79.7782 275.465 80.3822 275.465 81.6869ZM280.985 81.5177V77.7246H281.818V84.0908H281.033V82.9432C280.707 83.6801 279.934 84.2116 279.003 84.2116C277.711 84.2116 276.853 83.4747 276.853 81.8681V77.7246H277.699V81.6869C277.699 82.9794 278.339 83.4747 279.233 83.4747C280.248 83.4747 280.985 82.6533 280.985 81.5177ZM284.495 80.3822V84.0908H283.65V77.7246H284.435V78.9205C284.846 78.1353 285.619 77.6038 286.537 77.6038C287.866 77.6038 288.723 78.4494 288.723 79.9594V84.0908H287.878V80.2493C287.878 79.0293 287.322 78.3407 286.283 78.3407C285.293 78.3407 284.495 79.1984 284.495 80.3822Z" fill="#8F8F8F"/>
<path fill-rule="evenodd" clip-rule="evenodd" d="M28.0274 188.506C33.2395 188.506 37.4649 192.731 37.4649 197.943L37.4649 216.063C37.4649 221.276 33.2395 225.501 28.0274 225.501C22.8152 225.501 18.5898 221.276 18.5898 216.063L18.5898 197.943C18.5898 192.731 22.8152 188.506 28.0274 188.506Z" fill="#7551DC"/>
<path fill-rule="evenodd" clip-rule="evenodd" d="M63.6787 175.671C68.8909 175.671 73.1162 179.896 73.1162 185.108L73.1162 216.063C73.1162 221.276 68.8909 225.501 63.6787 225.501C58.4665 225.501 54.2412 221.276 54.2412 216.063L54.2412 185.108C54.2412 179.896 58.4665 175.671 63.6787 175.671Z" fill="#7551DC"/>
<path fill-rule="evenodd" clip-rule="evenodd" d="M99.6338 129.897C104.846 129.851 109.108 134.039 109.154 139.251L109.529 215.897C109.575 221.109 105.387 225.371 100.175 225.417C94.9631 225.464 90.7005 221.276 90.6544 216.064L90.2802 139.418C90.2341 134.206 94.4218 129.944 99.6338 129.897Z" fill="#7551DC"/>
<path fill-rule="evenodd" clip-rule="evenodd" d="M136.131 150.001C141.343 150.001 145.568 154.226 145.568 159.438L145.568 216.063C145.568 221.276 141.343 225.501 136.131 225.501C130.919 225.501 126.693 221.276 126.693 216.063L126.693 159.438C126.693 154.226 130.919 150.001 136.131 150.001Z" fill="#7551DC"/>
<path fill-rule="evenodd" clip-rule="evenodd" d="M171.782 170.386C176.994 170.386 181.22 174.611 181.22 179.823L181.22 216.063C181.22 221.276 176.994 225.501 171.782 225.501C166.57 225.501 162.345 221.276 162.345 216.063L162.345 179.823C162.345 174.611 166.57 170.386 171.782 170.386Z" fill="#7551DC"/>
<path fill-rule="evenodd" clip-rule="evenodd" d="M207.433 158.937C212.645 158.868 216.926 163.037 216.995 168.249L217.627 215.814C217.696 221.025 213.527 225.306 208.315 225.376C203.103 225.445 198.822 221.276 198.753 216.064L198.121 168.499C198.052 163.287 202.221 159.006 207.433 158.937Z" fill="#7551DC"/>
<path fill-rule="evenodd" clip-rule="evenodd" d="M243.966 133.254C249.177 133.177 253.464 137.34 253.541 142.551L254.62 215.787C254.697 220.998 250.534 225.285 245.322 225.362C240.111 225.439 235.824 221.276 235.747 216.064L234.668 142.829C234.592 137.618 238.754 133.331 243.966 133.254Z" fill="#7551DC"/>
<path fill-rule="evenodd" clip-rule="evenodd" d="M280.973 164.346C286.185 164.346 290.41 168.571 290.41 173.783L290.41 216.063C290.41 221.276 286.185 225.501 280.973 225.501C275.76 225.501 271.535 221.276 271.535 216.063L271.535 173.783C271.535 168.571 275.76 164.346 280.973 164.346Z" fill="#7551DC"/>
<rect x="57.1729" y="103.731" width="85.1" height="24.04" rx="7.55001" fill="#DAFFE9"/>
<path d="M69.8246 120.751L67.5536 114.989V120.751H65.8865V112.078H68.0851L70.5977 118.504L73.1225 112.078H75.321V120.751H73.654V114.941L71.3588 120.751H69.8246ZM79.7995 120.872C77.9271 120.872 76.5258 119.398 76.5258 117.526C76.5258 115.641 77.9271 114.18 79.7995 114.18C81.6719 114.18 83.0732 115.641 83.0732 117.526C83.0732 119.398 81.6719 120.872 79.7995 120.872ZM79.7995 119.386C80.633 119.386 81.3457 118.722 81.3457 117.526C81.3457 116.33 80.633 115.678 79.7995 115.678C78.966 115.678 78.2533 116.33 78.2533 117.526C78.2533 118.722 78.966 119.386 79.7995 119.386ZM89.5928 118.686C89.5928 120.039 88.566 120.872 86.7298 120.872C84.8937 120.872 83.8669 119.99 83.734 118.553H85.3406C85.3527 119.217 85.9205 119.64 86.754 119.64C87.4063 119.64 87.9016 119.435 87.9016 118.975C87.9016 118.565 87.6358 118.396 87.0198 118.275L85.8601 118.057C84.7004 117.852 83.9998 117.212 83.9998 116.209C83.9998 115.013 85.0266 114.18 86.6332 114.18C88.2519 114.18 89.3633 115.037 89.4841 116.427H87.8774C87.817 115.798 87.3459 115.412 86.6332 115.412C86.0171 115.412 85.6064 115.641 85.6064 116.052C85.6064 116.439 85.8722 116.596 86.452 116.704L87.6962 116.934C88.9526 117.176 89.5928 117.755 89.5928 118.686ZM94.62 119.12V120.582C94.2093 120.787 93.8227 120.872 93.3274 120.872C91.9986 120.872 91.1651 120.111 91.1651 118.661V115.738H89.8605V114.301H91.1651V112.392H92.8321V114.301H94.6804V115.738H92.8321V118.275C92.8321 119.024 93.1704 119.326 93.7744 119.326C94.0885 119.326 94.3784 119.253 94.62 119.12ZM104.174 120.751L103.521 118.891H100.151L99.4865 120.751H97.6383L100.9 112.078H102.905L106.143 120.751H104.174ZM101.854 114.083L100.67 117.429H103.014L101.854 114.083ZM109.407 120.872C107.546 120.872 106.266 119.495 106.266 117.526C106.266 115.593 107.595 114.18 109.407 114.18C111.086 114.18 112.33 115.315 112.535 117.055H110.772C110.687 116.197 110.168 115.666 109.407 115.666C108.537 115.666 107.981 116.378 107.981 117.526C107.981 118.686 108.525 119.386 109.407 119.386C110.18 119.386 110.675 118.879 110.772 117.997H112.535C112.342 119.773 111.134 120.872 109.407 120.872ZM117.624 119.12V120.582C117.213 120.787 116.827 120.872 116.331 120.872C115.003 120.872 114.169 120.111 114.169 118.661V115.738H112.864V114.301H114.169V112.392H115.836V114.301H117.684V115.738H115.836V118.275C115.836 119.024 116.174 119.326 116.778 119.326C117.092 119.326 117.382 119.253 117.624 119.12ZM120.654 112.803C120.654 113.37 120.195 113.793 119.531 113.793C118.879 113.793 118.42 113.37 118.42 112.803C118.42 112.211 118.879 111.788 119.531 111.788C120.195 111.788 120.654 112.211 120.654 112.803ZM120.389 120.751H118.71V114.301H120.389V120.751ZM127.693 114.301L125.326 120.751H123.49L121.11 114.301H122.922L124.456 118.843L126.002 114.301H127.693ZM131.009 120.86C129.076 120.86 127.783 119.519 127.783 117.502C127.783 115.581 129.124 114.18 130.985 114.18C133.026 114.18 134.379 115.835 134.077 117.937H129.499C129.607 118.988 130.115 119.567 130.972 119.567C131.709 119.567 132.205 119.205 132.398 118.565H134.065C133.703 120.026 132.579 120.86 131.009 120.86ZM130.948 115.412C130.163 115.412 129.668 115.919 129.523 116.874H132.301C132.253 115.98 131.746 115.412 130.948 115.412Z" fill="#0E803B"/>
<path d="M21.2474 251.581H20.4139V244.14H18.8073V243.415H21.2474V251.581ZM27.8753 250.832V251.581H22.9467V251.098L25.556 248.15C26.5465 247.027 26.9089 246.423 26.9089 245.638C26.9089 244.719 26.2324 244.043 25.2781 244.043C24.2876 244.043 23.5869 244.732 23.5869 245.746H22.7655C22.7655 244.321 23.8164 243.294 25.3144 243.294C26.7398 243.294 27.7908 244.248 27.7908 245.565C27.7908 246.447 27.4404 247.111 26.1841 248.513L24.1909 250.832H27.8753ZM33.284 251.581V250.421C32.9096 251.219 32.1364 251.702 31.1459 251.702C29.8292 251.702 28.9715 250.965 28.9715 249.817C28.9715 248.573 29.962 247.921 31.8948 247.921C32.2814 247.921 32.5713 247.945 33.1995 247.993V247.462C33.1995 246.399 32.6317 245.77 31.6653 245.77C30.6264 245.77 29.9741 246.411 29.962 247.45H29.1889C29.2252 246.036 30.2036 245.094 31.6532 245.094C33.1391 245.094 34.0088 245.964 34.0088 247.437V251.581H33.284ZM29.7808 249.793C29.7808 250.566 30.3728 251.086 31.2667 251.086C32.4505 251.086 33.1995 250.313 33.1995 249.117V248.549C32.6559 248.501 32.2814 248.488 31.9311 248.488C30.4815 248.488 29.7808 248.911 29.7808 249.793Z" fill="#8F8F8F"/>
<path d="M60.709 251.69C59.0903 251.69 57.979 250.735 57.9427 249.322H58.7642C58.8125 250.349 59.5735 251.001 60.709 251.001C61.8808 251.001 62.5935 250.361 62.5935 249.334C62.5935 248.356 61.7962 247.727 60.5399 247.727H59.7306V247.027H60.5158C61.5184 247.027 62.219 246.387 62.219 245.468C62.219 244.587 61.5667 243.983 60.6366 243.983C59.6702 243.983 59.0299 244.587 58.9816 245.529H58.1722C58.2085 244.248 59.2715 243.294 60.6607 243.294C62.1103 243.294 63.0888 244.176 63.0888 245.432C63.0888 246.278 62.5814 246.954 61.6875 247.329C62.811 247.607 63.4633 248.331 63.4633 249.322C63.4633 250.723 62.3519 251.69 60.709 251.69ZM69.0233 251.581V250.421C68.6488 251.219 67.8757 251.702 66.8851 251.702C65.5684 251.702 64.7107 250.965 64.7107 249.817C64.7107 248.573 65.7013 247.921 67.6341 247.921C68.0207 247.921 68.3106 247.945 68.9387 247.993V247.462C68.9387 246.399 68.371 245.77 67.4046 245.77C66.3657 245.77 65.7134 246.411 65.7013 247.45H64.9282C64.9644 246.036 65.9429 245.094 67.3925 245.094C68.8783 245.094 69.7481 245.964 69.7481 247.437V251.581H69.0233ZM65.5201 249.793C65.5201 250.566 66.112 251.086 67.0059 251.086C68.1898 251.086 68.9387 250.313 68.9387 249.117V248.549C68.3951 248.501 68.0207 248.488 67.6703 248.488C66.2207 248.488 65.5201 248.911 65.5201 249.793Z" fill="#8F8F8F"/>
<path d="M96.2526 251.69C94.6218 251.69 93.4138 250.518 93.4138 249.02C93.4138 247.957 93.8486 247.317 94.4889 246.519L96.9532 243.415H97.9075L95.4553 246.519C95.7935 246.399 96.1197 246.338 96.4217 246.338C97.9438 246.338 99.1034 247.389 99.1034 248.996C99.1034 250.518 97.8954 251.69 96.2526 251.69ZM96.2646 250.989C97.3881 250.989 98.2337 250.155 98.2337 249.02C98.2337 247.8 97.3881 246.991 96.2646 246.991C95.1291 246.991 94.2835 247.691 94.2835 248.996C94.2835 250.155 95.1291 250.989 96.2646 250.989ZM104.381 251.581V250.421C104.007 251.219 103.234 251.702 102.243 251.702C100.927 251.702 100.069 250.965 100.069 249.817C100.069 248.573 101.059 247.921 102.992 247.921C103.379 247.921 103.669 247.945 104.297 247.993V247.462C104.297 246.399 103.729 245.77 102.763 245.77C101.724 245.77 101.072 246.411 101.059 247.45H100.286C100.323 246.036 101.301 245.094 102.751 245.094C104.237 245.094 105.106 245.964 105.106 247.437V251.581H104.381ZM100.878 249.793C100.878 250.566 101.47 251.086 102.364 251.086C103.548 251.086 104.297 250.313 104.297 249.117V248.549C103.753 248.501 103.379 248.488 103.029 248.488C101.579 248.488 100.878 248.911 100.878 249.793Z" fill="#8F8F8F"/>
<path d="M131.953 243.306C133.584 243.306 134.792 244.478 134.792 245.976C134.792 246.978 134.393 247.607 133.705 248.476L131.252 251.581H130.286L132.738 248.464C132.412 248.597 132.074 248.645 131.772 248.645C130.25 248.645 129.102 247.595 129.102 246C129.102 244.478 130.31 243.306 131.953 243.306ZM131.941 244.007C130.793 244.007 129.972 244.84 129.972 245.976C129.972 247.196 130.793 248.005 131.941 248.005C133.064 248.005 133.922 247.305 133.922 246C133.922 244.84 133.064 244.007 131.941 244.007ZM140.07 251.581V250.421C139.695 251.219 138.922 251.702 137.932 251.702C136.615 251.702 135.757 250.965 135.757 249.817C135.757 248.573 136.748 247.921 138.681 247.921C139.067 247.921 139.357 247.945 139.985 247.993V247.462C139.985 246.399 139.418 245.77 138.451 245.77C137.412 245.77 136.76 246.411 136.748 247.45H135.975C136.011 246.036 136.99 245.094 138.439 245.094C139.925 245.094 140.795 245.964 140.795 247.437V251.581H140.07ZM136.567 249.793C136.567 250.566 137.159 251.086 138.053 251.086C139.236 251.086 139.985 250.313 139.985 249.117V248.549C139.442 248.501 139.067 248.488 138.717 248.488C137.267 248.488 136.567 248.911 136.567 249.793Z" fill="#8F8F8F"/>
<path d="M167.001 251.581H166.168V244.14H164.561V243.415H167.001V251.581ZM173.629 250.832V251.581H168.701V251.098L171.31 248.15C172.3 247.027 172.663 246.423 172.663 245.638C172.663 244.719 171.986 244.043 171.032 244.043C170.041 244.043 169.341 244.732 169.341 245.746H168.519C168.519 244.321 169.57 243.294 171.068 243.294C172.494 243.294 173.545 244.248 173.545 245.565C173.545 246.447 173.194 247.111 171.938 248.513L169.945 250.832H173.629ZM180.959 248.392C180.959 250.361 179.859 251.702 178.168 251.702C177.214 251.702 176.405 251.182 175.97 250.276V253.912H175.124V245.215H175.909V246.592C176.344 245.65 177.19 245.094 178.168 245.094C179.859 245.094 180.959 246.447 180.959 248.392ZM180.101 248.392C180.101 246.785 179.267 245.831 178.023 245.831C176.839 245.831 175.958 246.773 175.958 248.392C175.958 249.974 176.815 250.965 178.023 250.965C179.267 250.965 180.101 250.023 180.101 248.392Z" fill="#8F8F8F"/>
<path d="M207.464 251.69C205.845 251.69 204.734 250.735 204.698 249.322H205.519C205.567 250.349 206.328 251.001 207.464 251.001C208.636 251.001 209.348 250.361 209.348 249.334C209.348 248.356 208.551 247.727 207.295 247.727H206.485V247.027H207.271C208.273 247.027 208.974 246.387 208.974 245.468C208.974 244.587 208.322 243.983 207.391 243.983C206.425 243.983 205.785 244.587 205.736 245.529H204.927C204.963 244.248 206.026 243.294 207.416 243.294C208.865 243.294 209.844 244.176 209.844 245.432C209.844 246.278 209.336 246.954 208.442 247.329C209.566 247.607 210.218 248.331 210.218 249.322C210.218 250.723 209.107 251.69 207.464 251.69ZM217.699 248.392C217.699 250.361 216.6 251.702 214.908 251.702C213.954 251.702 213.145 251.182 212.71 250.276V253.912H211.864V245.215H212.649V246.592C213.084 245.65 213.93 245.094 214.908 245.094C216.6 245.094 217.699 246.447 217.699 248.392ZM216.841 248.392C216.841 246.785 216.008 245.831 214.763 245.831C213.58 245.831 212.698 246.773 212.698 248.392C212.698 249.974 213.555 250.965 214.763 250.965C216.008 250.965 216.841 250.023 216.841 248.392Z" fill="#8F8F8F"/>
<path d="M244.007 251.69C242.377 251.69 241.169 250.518 241.169 249.02C241.169 247.957 241.604 247.317 242.244 246.519L244.708 243.415H245.662L243.21 246.519C243.548 246.399 243.875 246.338 244.177 246.338C245.699 246.338 246.858 247.389 246.858 248.996C246.858 250.518 245.65 251.69 244.007 251.69ZM244.02 250.989C245.143 250.989 245.989 250.155 245.989 249.02C245.989 247.8 245.143 246.991 244.02 246.991C242.884 246.991 242.038 247.691 242.038 248.996C242.038 250.155 242.884 250.989 244.02 250.989ZM254.057 248.392C254.057 250.361 252.958 251.702 251.267 251.702C250.312 251.702 249.503 251.182 249.068 250.276V253.912H248.222V245.215H249.008V246.592C249.443 245.65 250.288 245.094 251.267 245.094C252.958 245.094 254.057 246.447 254.057 248.392ZM253.199 248.392C253.199 246.785 252.366 245.831 251.122 245.831C249.938 245.831 249.056 246.773 249.056 248.392C249.056 249.974 249.914 250.965 251.122 250.965C252.366 250.965 253.199 250.023 253.199 248.392Z" fill="#8F8F8F"/>
<path d="M279.708 243.306C281.339 243.306 282.547 244.478 282.547 245.976C282.547 246.978 282.148 247.607 281.46 248.476L279.007 251.581H278.041L280.493 248.464C280.167 248.597 279.829 248.645 279.527 248.645C278.005 248.645 276.857 247.595 276.857 246C276.857 244.478 278.065 243.306 279.708 243.306ZM279.696 244.007C278.548 244.007 277.727 244.84 277.727 245.976C277.727 247.196 278.548 248.005 279.696 248.005C280.819 248.005 281.677 247.305 281.677 246C281.677 244.84 280.819 244.007 279.696 244.007ZM289.746 248.392C289.746 250.361 288.646 251.702 286.955 251.702C286.001 251.702 285.191 251.182 284.757 250.276V253.912H283.911V245.215H284.696V246.592C285.131 245.65 285.977 245.094 286.955 245.094C288.646 245.094 289.746 246.447 289.746 248.392ZM288.888 248.392C288.888 246.785 288.054 245.831 286.81 245.831C285.626 245.831 284.744 246.773 284.744 248.392C284.744 249.974 285.602 250.965 286.81 250.965C288.054 250.965 288.888 250.023 288.888 248.392Z" fill="#8F8F8F"/>
</svg>
