<svg width="193" height="32" viewBox="0 0 193 32" fill="none" xmlns="http://www.w3.org/2000/svg">
<path d="M14.6861 3.90593C15.4029 2.36246 17.5971 2.36246 18.3139 3.90593L20.5643 8.75167C20.8557 9.37917 21.4508 9.81149 22.1376 9.89474L27.4416 10.5376C29.131 10.7423 29.8091 12.8292 28.5627 13.9879L24.6495 17.6255C24.1428 18.0966 23.9155 18.7961 24.0486 19.4751L25.0762 24.7181C25.4035 26.3881 23.6283 27.6779 22.1412 26.8505L17.4724 24.253C16.8678 23.9166 16.1322 23.9166 15.5276 24.253L10.8588 26.8505C9.37166 27.6779 7.59645 26.3881 7.92378 24.7181L8.95143 19.4751C9.08451 18.7961 8.85722 18.0966 8.35048 17.6255L4.43732 13.9879C3.1909 12.8292 3.86897 10.7423 5.55839 10.5376L10.8624 9.89474C11.5492 9.81149 12.1443 9.37917 12.4357 8.75167L14.6861 3.90593Z" fill="#FFCC6A"/>
<path d="M54.6861 3.90593C55.4029 2.36246 57.5971 2.36246 58.3139 3.90593L60.5643 8.75167C60.8557 9.37917 61.4508 9.81149 62.1376 9.89474L67.4416 10.5376C69.131 10.7423 69.8091 12.8292 68.5627 13.9879L64.6495 17.6255C64.1428 18.0966 63.9155 18.7961 64.0486 19.4751L65.0762 24.7181C65.4035 26.3881 63.6283 27.6779 62.1412 26.8505L57.4724 24.253C56.8678 23.9166 56.1322 23.9166 55.5276 24.253L50.8588 26.8505C49.3717 27.6779 47.5965 26.3881 47.9238 24.7181L48.9514 19.4751C49.0845 18.7961 48.8572 18.0966 48.3505 17.6255L44.4373 13.9879C43.1909 12.8292 43.869 10.7423 45.5584 10.5376L50.8624 9.89474C51.5492 9.81149 52.1443 9.37917 52.4357 8.75167L54.6861 3.90593Z" fill="#FFCC6A"/>
<path d="M94.6861 3.90593C95.4029 2.36246 97.5971 2.36246 98.3139 3.90593L100.564 8.75167C100.856 9.37917 101.451 9.81149 102.138 9.89474L107.442 10.5376C109.131 10.7423 109.809 12.8292 108.563 13.9879L104.65 17.6255C104.143 18.0966 103.915 18.7961 104.049 19.4751L105.076 24.7181C105.404 26.3881 103.628 27.6779 102.141 26.8505L97.4724 24.253C96.8678 23.9166 96.1322 23.9166 95.5276 24.253L90.8588 26.8505C89.3717 27.6779 87.5965 26.3881 87.9238 24.7181L88.9514 19.4751C89.0845 18.7961 88.8572 18.0966 88.3505 17.6255L84.4373 13.9879C83.1909 12.8292 83.869 10.7423 85.5584 10.5376L90.8624 9.89474C91.5492 9.81149 92.1443 9.37917 92.4357 8.75167L94.6861 3.90593Z" fill="#FFCC6A"/>
<path d="M134.686 3.90593C135.403 2.36246 137.597 2.36246 138.314 3.90593L140.564 8.75167C140.856 9.37917 141.451 9.81149 142.138 9.89474L147.442 10.5376C149.131 10.7423 149.809 12.8292 148.563 13.9879L144.65 17.6255C144.143 18.0966 143.915 18.7961 144.049 19.4751L145.076 24.7181C145.404 26.3881 143.628 27.6779 142.141 26.8505L137.472 24.253C136.868 23.9166 136.132 23.9166 135.528 24.253L130.859 26.8505C129.372 27.6779 127.596 26.3881 127.924 24.7181L128.951 19.4751C129.085 18.7961 128.857 18.0966 128.35 17.6255L124.437 13.9879C123.191 12.8292 123.869 10.7423 125.558 10.5376L130.862 9.89474C131.549 9.81149 132.144 9.37917 132.436 8.75167L134.686 3.90593Z" fill="#FFCC6A"/>
<path d="M174.686 3.90593C175.403 2.36246 177.597 2.36246 178.314 3.90593L180.564 8.75167C180.856 9.37917 181.451 9.81149 182.138 9.89474L187.442 10.5376C189.131 10.7423 189.809 12.8292 188.563 13.9879L184.65 17.6255C184.143 18.0966 183.915 18.7961 184.049 19.4751L185.076 24.7181C185.404 26.3881 183.628 27.6779 182.141 26.8505L177.472 24.253C176.868 23.9166 176.132 23.9166 175.528 24.253L170.859 26.8505C169.372 27.6779 167.596 26.3881 167.924 24.7181L168.951 19.4751C169.085 18.7961 168.857 18.0966 168.35 17.6255L164.437 13.9879C163.191 12.8292 163.869 10.7423 165.558 10.5376L170.862 9.89474C171.549 9.81149 172.144 9.37917 172.436 8.75167L174.686 3.90593Z" fill="#FFCC6A"/>
</svg>
